<?xml version="1.0" encoding="UTF-8"?>
<svg width="47px" height="66px" viewBox="0 0 47 66" version="1.1" xmlns="http://www.w3.org/2000/svg" xmlns:xlink="http://www.w3.org/1999/xlink">
    <!-- Generator: Sketch 49.1 (51147) - http://www.bohemiancoding.com/sketch -->
    <title>ico</title>
    <desc>Created with Sketch.</desc>
    <defs></defs>
    <g id="Page-1" stroke="none" stroke-width="1" fill="none" fill-rule="evenodd">
        <g id="认证提交成功" transform="translate(-164.000000, -103.000000)">
            <g id="Group-2" transform="translate(164.000000, 103.000000)">
                <g id="Group-3" transform="translate(0.000000, 1.000000)">
                    <rect id="Rectangle-path" fill="#FFFFF6" x="3.9" y="11.2" width="39.1" height="49.7"></rect>
                    <rect id="Rectangle-path" fill="#FFFFC3" x="3.9" y="11.2" width="18.6" height="49.7"></rect>
                    <rect id="Rectangle-path" fill="#7DE6DC" x="7.5" y="11.2" width="33.5" height="49.7"></rect>
                    <path d="M9.1,55.3 C8.5,55.3 8.1,54.9 8.1,54.3 L8.1,11.2 C8.1,10.6 8.5,10.2 9.1,10.2 L37.9,10.2 C38.5,10.2 38.9,10.6 38.9,11.2 L38.9,54.3 C38.9,54.9 38.5,55.3 37.9,55.3 L9.1,55.3 L9.1,55.3 Z" id="Shape" fill="#FFFFF6"></path>
                    <path d="M13.2,20.7 L14.6,20.7" id="Shape" fill="#FFFFF6"></path>
                    <path d="M17.7,20.7 L23,20.7" id="Shape" fill="#FFFFF6"></path>
                    <path d="M13.2,25.6 L14.6,25.6" id="Shape" fill="#FFFFF6"></path>
                    <path d="M17.7,25.6 L27.8,25.6" id="Shape" fill="#FFFFF6"></path>
                    <path d="M13.2,30.5 L14.6,30.5" id="Shape" fill="#FFFFF6"></path>
                    <path d="M17.7,30.5 L21.8,30.5" id="Shape" fill="#FFFFF6"></path>
                    <path d="M13.2,35.4 L14.6,35.4" id="Shape" fill="#FFFFF6"></path>
                    <path d="M17.7,35.4 L34.3,35.4" id="Shape" fill="#FFFFF6"></path>
                    <path d="M13.2,40.3 L14.6,40.3" id="Shape" fill="#FFFFF6"></path>
                    <path d="M17.7,40.3 L23,40.3" id="Shape" fill="#FFFFF6"></path>
                    <path d="M13.2,45.2 L14.6,45.2" id="Shape" fill="#FFFFF6"></path>
                    <path d="M17.7,45.2 L25.6,45.2" id="Shape" fill="#FFFFF6"></path>
                    <path d="M33.6,50.5 L34.5,50.5" id="Shape" fill="#FFFFF6"></path>
                    <path d="M25.6,50.5 L30.3,50.5" id="Shape" fill="#FFFFF6"></path>
                    <path d="M15,14.5 C14.1,14.5 13.3,13.8 13.3,12.8 L13.3,7.7 C13.3,6.8 14,6 15,6 L17.8,6 C18.5,3.6 20.8,1.8 23.4,1.8 C26,1.8 28.3,3.6 29,6 L31.8,6 C32.7,6 33.5,6.7 33.5,7.7 L33.5,12.8 C33.5,13.7 32.8,14.5 31.8,14.5 L15,14.5 L15,14.5 Z" id="Shape" fill="#FFFFF6"></path>
                    <path d="M27.6,7.7 C27.6,5.4 25.7,3.5 23.4,3.5 C21.1,3.5 19.2,5.4 19.2,7.7 L15,7.7 L15,12.8 L31.9,12.8 L31.9,7.7 L27.6,7.7 L27.6,7.7 Z" id="Shape" fill="#F38290"></path>
                    <g id="Group" fill="#64375A">
                        <path d="M14.6,19.7 L13.2,19.7 C12.6,19.7 12.2,20.1 12.2,20.7 C12.2,21.3 12.6,21.7 13.2,21.7 L14.6,21.7 C15.2,21.7 15.6,21.3 15.6,20.7 C15.6,20.1 15.2,19.7 14.6,19.7 L14.6,19.7 Z" id="Shape"></path>
                        <path d="M17.7,21.7 L23,21.7 C23.6,21.7 24,21.3 24,20.7 C24,20.1 23.6,19.7 23,19.7 L17.7,19.7 C17.1,19.7 16.7,20.1 16.7,20.7 C16.7,21.3 17.2,21.7 17.7,21.7 L17.7,21.7 Z" id="Shape"></path>
                        <path d="M14.6,24.6 L13.2,24.6 C12.6,24.6 12.2,25 12.2,25.6 C12.2,26.2 12.6,26.6 13.2,26.6 L14.6,26.6 C15.2,26.6 15.6,26.2 15.6,25.6 C15.6,25 15.2,24.6 14.6,24.6 L14.6,24.6 Z" id="Shape"></path>
                        <path d="M17.7,26.6 L27.7,26.6 C28.3,26.6 28.7,26.2 28.7,25.6 C28.7,25 28.3,24.6 27.7,24.6 L17.7,24.6 C17.1,24.6 16.7,25 16.7,25.6 C16.7,26.2 17.2,26.6 17.7,26.6 L17.7,26.6 Z" id="Shape"></path>
                        <path d="M14.6,29.5 L13.2,29.5 C12.6,29.5 12.2,29.9 12.2,30.5 C12.2,31.1 12.6,31.5 13.2,31.5 L14.6,31.5 C15.2,31.5 15.6,31.1 15.6,30.5 C15.6,29.9 15.2,29.5 14.6,29.5 L14.6,29.5 Z" id="Shape"></path>
                        <path d="M17.7,31.5 L21.8,31.5 C22.4,31.5 22.8,31.1 22.8,30.5 C22.8,29.9 22.4,29.5 21.8,29.5 L17.7,29.5 C17.1,29.5 16.7,29.9 16.7,30.5 C16.7,31.1 17.2,31.5 17.7,31.5 L17.7,31.5 Z" id="Shape"></path>
                        <path d="M14.6,34.4 L13.2,34.4 C12.6,34.4 12.2,34.8 12.2,35.4 C12.2,36 12.6,36.4 13.2,36.4 L14.6,36.4 C15.2,36.4 15.6,36 15.6,35.4 C15.6,34.8 15.2,34.4 14.6,34.4 L14.6,34.4 Z" id="Shape"></path>
                        <path d="M17.7,36.4 L34.2,36.4 C34.8,36.4 35.2,36 35.2,35.4 C35.2,34.8 34.8,34.4 34.2,34.4 L17.7,34.4 C17.1,34.4 16.7,34.8 16.7,35.4 C16.7,35.9 17.2,36.4 17.7,36.4 L17.7,36.4 Z" id="Shape"></path>
                        <path d="M14.6,39.3 L13.2,39.3 C12.6,39.3 12.2,39.7 12.2,40.3 C12.2,40.9 12.6,41.3 13.2,41.3 L14.6,41.3 C15.2,41.3 15.6,40.9 15.6,40.3 C15.6,39.7 15.2,39.3 14.6,39.3 L14.6,39.3 Z" id="Shape"></path>
                        <path d="M17.7,41.3 L23,41.3 C23.6,41.3 24,40.9 24,40.3 C24,39.7 23.6,39.3 23,39.3 L17.7,39.3 C17.1,39.3 16.7,39.7 16.7,40.3 C16.7,40.8 17.2,41.3 17.7,41.3 L17.7,41.3 Z" id="Shape"></path>
                        <path d="M14.6,44.2 L13.2,44.2 C12.6,44.2 12.2,44.6 12.2,45.2 C12.2,45.8 12.6,46.2 13.2,46.2 L14.6,46.2 C15.2,46.2 15.6,45.8 15.6,45.2 C15.6,44.6 15.2,44.2 14.6,44.2 L14.6,44.2 Z" id="Shape"></path>
                        <path d="M26.6,45.2 C26.6,44.6 26.2,44.2 25.6,44.2 L17.8,44.2 C17.2,44.2 16.8,44.6 16.8,45.2 C16.8,45.8 17.2,46.2 17.8,46.2 L25.6,46.2 C26.1,46.2 26.6,45.7 26.6,45.2 L26.6,45.2 Z" id="Shape"></path>
                        <path d="M34.5,49.5 L33.5,49.5 C32.9,49.5 32.5,49.9 32.5,50.5 C32.5,51.1 32.9,51.5 33.5,51.5 L34.5,51.5 C35.1,51.5 35.5,51.1 35.5,50.5 C35.5,49.9 35.1,49.5 34.5,49.5 L34.5,49.5 Z" id="Shape"></path>
                        <path d="M30.3,49.5 L25.6,49.5 C25,49.5 24.6,49.9 24.6,50.5 C24.6,51.1 25,51.5 25.6,51.5 L30.3,51.5 C30.9,51.5 31.3,51.1 31.3,50.5 C31.3,49.9 30.8,49.5 30.3,49.5 L30.3,49.5 Z" id="Shape"></path>
                        <path d="M43,7.8 L35.2,7.8 L35.2,7.7 C35.2,5.9 33.7,4.4 31.9,4.4 L30.2,4.4 C29,1.9 26.4,0.2 23.5,0.2 C20.6,0.2 18,1.9 16.8,4.4 L15,4.4 C13.2,4.4 11.7,5.9 11.7,7.7 L11.7,7.8 L3.9,7.8 C2.1,7.8 0.6,9.3 0.6,11.1 L0.6,60.8 C0.6,62.6 2.1,64.1 3.9,64.1 L43,64.1 C44.8,64.1 46.3,62.6 46.3,60.8 L46.3,11.1 C46.4,9.3 44.9,7.8 43,7.8 L43,7.8 Z M15,7.7 L19.3,7.7 C19.3,5.4 21.2,3.5 23.5,3.5 C25.8,3.5 27.7,5.4 27.7,7.7 L32,7.7 L32,12.8 L15,12.8 L15,7.7 L15,7.7 Z M9.1,11.2 L11.7,11.2 L11.7,12.8 C11.7,14.6 13.2,16.1 15,16.1 L31.9,16.1 C33.7,16.1 35.2,14.6 35.2,12.8 L35.2,11.2 L37.8,11.2 L37.8,54.3 L9,54.3 L9,11.2 L9.1,11.2 Z M43,60.8 L3.9,60.8 L3.9,11.1 L7,11.1 L7,54.2 C7,55.3 7.9,56.2 9,56.2 L37.8,56.2 C38.9,56.2 39.8,55.3 39.8,54.2 L39.8,11.1 L42.9,11.1 L42.9,60.8 L43,60.8 Z" id="Shape"></path>
                        <circle id="Oval" cx="23.5" cy="7.9" r="1.7"></circle>
                    </g>
                </g>
            </g>
        </g>
    </g>
</svg>