<?xml version="1.0" encoding="UTF-8"?>
<svg width="375px" height="160px" viewBox="0 0 375 160" version="1.1" xmlns="http://www.w3.org/2000/svg" xmlns:xlink="http://www.w3.org/1999/xlink">
    <!-- Generator: Sketch 49.1 (51147) - http://www.bohemiancoding.com/sketch -->
    <title>banner</title>
    <desc>Created with Sketch.</desc>
    <defs>
        <linearGradient x1="50%" y1="2.12870845%" x2="50%" y2="95.5179733%" id="linearGradient-1">
            <stop stop-color="#B6EDFC" offset="0%"></stop>
            <stop stop-color="#5B86E5" offset="100%"></stop>
        </linearGradient>
        <text id="text-2" font-family="PingFangSC-Regular, PingFang SC" font-size="20" font-weight="normal" line-spacing="20" letter-spacing="0.200000003" fill="#FFFFFF">
            <tspan x="58" y="81">医生集团简</tspan>
            <tspan x="159" y="81">介</tspan>
        </text>
        <filter x="-2.9%" y="-12.5%" width="105.7%" height="135.0%" filterUnits="objectBoundingBox" id="filter-3">
            <feOffset dx="0" dy="1" in="SourceAlpha" result="shadowOffsetOuter1"></feOffset>
            <feGaussianBlur stdDeviation="1" in="shadowOffsetOuter1" result="shadowBlurOuter1"></feGaussianBlur>
            <feColorMatrix values="0 0 0 0 0   0 0 0 0 0   0 0 0 0 0  0 0 0 0.5 0" type="matrix" in="shadowBlurOuter1"></feColorMatrix>
        </filter>
    </defs>
    <g id="Page-1" stroke="none" stroke-width="1" fill="none" fill-rule="evenodd">
        <g id="home" transform="translate(0.000000, -64.000000)">
            <g id="banner" transform="translate(0.000000, 64.000000)">
                <rect fill="url(#linearGradient-1)" x="0" y="0" width="375" height="160"></rect>
                <circle id="Oval-7" fill="#C6E4F6" opacity="0.529608243" cx="270" cy="65" r="46"></circle>
                <circle id="Oval-7-Copy" fill="#5B86E5" opacity="0.476845562" cx="310" cy="80" r="37"></circle>
                <circle id="Oval-7-Copy-2" fill="#85C3EA" opacity="0.459182518" cx="272.5" cy="102.5" r="31.5"></circle>
                <g id="Group-2" transform="translate(239.000000, 38.000000)">
                    <path d="M49.5414365,25 C48.8508287,25 48.160221,24.4491018 48.160221,23.6227545 L48.160221,17.8383234 L40.839779,17.8383234 L40.839779,23.6227545 C40.839779,24.4491018 40.2872928,25 39.4585635,25 L33.3812155,25 C32.6906077,25 32,24.4491018 32,23.6227545 L32,3.37724551 C32,2.68862275 32.5524862,2 33.3812155,2 L39.4585635,2 C40.1491713,2 40.839779,2.5508982 40.839779,3.37724551 L40.839779,9.16167665 L48.160221,9.16167665 L48.160221,3.37724551 C48.160221,2.68862275 48.7127072,2 49.5414365,2 L55.6187845,2 C56.3093923,2 57,2.5508982 57,3.37724551 L57,23.6227545 C57,24.4491018 56.4475138,25 55.6187845,25 L49.5414365,25 L49.5414365,25 Z" id="Shape" fill="#F38290"></path>
                    <rect id="Rectangle-path" fill="#FFFFC3" x="13" y="24" width="10" height="57"></rect>
                    <rect id="Rectangle-path" fill="#7DE6DC" x="23" y="24" width="50" height="57"></rect>
                    <rect id="Rectangle-path" fill="#FFFFF6" x="18" y="30" width="10" height="10"></rect>
                    <rect id="Rectangle-path" fill="#FFFFF6" x="33" y="30" width="10" height="10"></rect>
                    <rect id="Rectangle-path" fill="#FFFFF6" x="47" y="30" width="10" height="10"></rect>
                    <rect id="Rectangle-path" fill="#FFFFF6" x="62" y="30" width="10" height="10"></rect>
                    <rect id="Rectangle-path" fill="#FFFFF6" x="18" y="45" width="10" height="10"></rect>
                    <rect id="Rectangle-path" fill="#FFFFF6" x="33" y="45" width="10" height="10"></rect>
                    <rect id="Rectangle-path" fill="#FFFFF6" x="47" y="45" width="10" height="10"></rect>
                    <rect id="Rectangle-path" fill="#FFFFF6" x="62" y="45" width="10" height="10"></rect>
                    <rect id="Rectangle-path" fill="#FFFFF6" x="18" y="60" width="10" height="10"></rect>
                    <rect id="Rectangle-path" fill="#F38290" x="33" y="60" width="24" height="21"></rect>
                    <rect id="Rectangle-path" fill="#FFFFF6" x="62" y="60" width="10" height="10"></rect>
                    <g id="Group" fill="#64375A">
                        <path d="M18.1384615,41.7245902 L27.9692308,41.7245902 C28.8,41.7245902 29.3538462,41.1737705 29.3538462,40.347541 L29.3538462,30.5704918 C29.3538462,29.7442623 28.8,29.1934426 27.9692308,29.1934426 L18.1384615,29.1934426 C17.3076923,29.1934426 16.7538462,29.7442623 16.7538462,30.5704918 L16.7538462,40.347541 C16.8923077,41.0360656 17.4461538,41.7245902 18.1384615,41.7245902 L18.1384615,41.7245902 Z M19.5230769,31.8098361 L26.5846154,31.8098361 L26.5846154,38.8327869 L19.5230769,38.8327869 L19.5230769,31.8098361 L19.5230769,31.8098361 Z" id="Shape"></path>
                        <path d="M32.8153846,41.7245902 L42.6461538,41.7245902 C43.4769231,41.7245902 44.0307692,41.1737705 44.0307692,40.347541 L44.0307692,30.5704918 C44.0307692,29.7442623 43.4769231,29.1934426 42.6461538,29.1934426 L32.8153846,29.1934426 C32.1230769,29.1934426 31.4307692,29.7442623 31.4307692,30.5704918 L31.4307692,40.347541 C31.4307692,41.0360656 31.9846154,41.7245902 32.8153846,41.7245902 L32.8153846,41.7245902 Z M34.2,31.8098361 L41.4,31.8098361 L41.4,38.8327869 L34.2,38.8327869 L34.2,31.8098361 L34.2,31.8098361 Z" id="Shape"></path>
                        <path d="M47.3538462,41.7245902 L57.1846154,41.7245902 C57.8769231,41.7245902 58.5692308,41.1737705 58.5692308,40.347541 L58.5692308,30.5704918 C58.5692308,29.7442623 58.0153846,29.1934426 57.1846154,29.1934426 L47.3538462,29.1934426 C46.6615385,29.1934426 45.9692308,29.7442623 45.9692308,30.5704918 L45.9692308,40.347541 C45.9692308,41.0360656 46.5230769,41.7245902 47.3538462,41.7245902 L47.3538462,41.7245902 Z M48.7384615,31.8098361 L55.8,31.8098361 L55.8,38.8327869 L48.7384615,38.8327869 L48.7384615,31.8098361 L48.7384615,31.8098361 Z" id="Shape"></path>
                        <path d="M61.8923077,41.7245902 L71.7230769,41.7245902 C72.5538462,41.7245902 73.1076923,41.1737705 73.1076923,40.347541 L73.1076923,30.5704918 C73.1076923,29.7442623 72.5538462,29.1934426 71.7230769,29.1934426 L61.8923077,29.1934426 C61.2,29.1934426 60.5076923,29.7442623 60.5076923,30.5704918 L60.5076923,40.347541 C60.5076923,41.0360656 61.0615385,41.7245902 61.8923077,41.7245902 L61.8923077,41.7245902 Z M63.2769231,31.8098361 L70.3384615,31.8098361 L70.3384615,38.8327869 L63.2769231,38.8327869 L63.2769231,31.8098361 L63.2769231,31.8098361 Z" id="Shape"></path>
                        <path d="M18.1384615,56.7344262 L27.9692308,56.7344262 C28.8,56.7344262 29.3538462,56.1836066 29.3538462,55.357377 L29.3538462,45.442623 C29.3538462,44.7540984 28.8,44.0655738 27.9692308,44.0655738 L18.1384615,44.0655738 C17.3076923,44.0655738 16.7538462,44.6163934 16.7538462,45.442623 L16.7538462,55.2196721 C16.8923077,56.0459016 17.4461538,56.7344262 18.1384615,56.7344262 L18.1384615,56.7344262 Z M19.5230769,46.8196721 L26.5846154,46.8196721 L26.5846154,53.842623 L19.5230769,53.842623 L19.5230769,46.8196721 L19.5230769,46.8196721 Z" id="Shape"></path>
                        <path d="M32.8153846,56.7344262 L42.6461538,56.7344262 C43.4769231,56.7344262 44.0307692,56.1836066 44.0307692,55.357377 L44.0307692,45.442623 C44.0307692,44.7540984 43.4769231,44.0655738 42.6461538,44.0655738 L32.8153846,44.0655738 C32.1230769,44.0655738 31.4307692,44.6163934 31.4307692,45.442623 L31.4307692,55.2196721 C31.4307692,56.0459016 31.9846154,56.7344262 32.8153846,56.7344262 L32.8153846,56.7344262 Z M34.2,46.8196721 L41.4,46.8196721 L41.4,53.842623 L34.2,53.842623 L34.2,46.8196721 L34.2,46.8196721 Z" id="Shape"></path>
                        <path d="M47.3538462,56.7344262 L57.1846154,56.7344262 C57.8769231,56.7344262 58.5692308,56.1836066 58.5692308,55.357377 L58.5692308,45.442623 C58.5692308,44.7540984 58.0153846,44.0655738 57.1846154,44.0655738 L47.3538462,44.0655738 C46.6615385,44.0655738 45.9692308,44.6163934 45.9692308,45.442623 L45.9692308,55.2196721 C45.9692308,56.0459016 46.5230769,56.7344262 47.3538462,56.7344262 L47.3538462,56.7344262 Z M48.7384615,46.8196721 L55.8,46.8196721 L55.8,53.842623 L48.7384615,53.842623 L48.7384615,46.8196721 L48.7384615,46.8196721 Z" id="Shape"></path>
                        <path d="M61.8923077,56.7344262 L71.7230769,56.7344262 C72.5538462,56.7344262 73.1076923,56.1836066 73.1076923,55.357377 L73.1076923,45.442623 C73.1076923,44.7540984 72.5538462,44.0655738 71.7230769,44.0655738 L61.8923077,44.0655738 C61.2,44.0655738 60.5076923,44.6163934 60.5076923,45.442623 L60.5076923,55.2196721 C60.5076923,56.0459016 61.0615385,56.7344262 61.8923077,56.7344262 L61.8923077,56.7344262 Z M63.2769231,46.8196721 L70.3384615,46.8196721 L70.3384615,53.842623 L63.2769231,53.842623 L63.2769231,46.8196721 L63.2769231,46.8196721 Z" id="Shape"></path>
                        <path d="M18.1384615,71.7442623 L27.9692308,71.7442623 C28.8,71.7442623 29.3538462,71.1934426 29.3538462,70.3672131 L29.3538462,60.5901639 C29.3538462,59.7639344 28.8,59.2131148 27.9692308,59.2131148 L18.1384615,59.2131148 C17.3076923,59.2131148 16.7538462,59.7639344 16.7538462,60.5901639 L16.7538462,70.3672131 C16.8923077,71.0557377 17.4461538,71.7442623 18.1384615,71.7442623 L18.1384615,71.7442623 Z M19.5230769,61.8295082 L26.5846154,61.8295082 L26.5846154,68.9901639 L19.5230769,68.9901639 L19.5230769,61.8295082 L19.5230769,61.8295082 Z" id="Shape"></path>
                        <path d="M61.8923077,71.7442623 L71.7230769,71.7442623 C72.5538462,71.7442623 73.1076923,71.1934426 73.1076923,70.3672131 L73.1076923,60.5901639 C73.1076923,59.7639344 72.5538462,59.2131148 71.7230769,59.2131148 L61.8923077,59.2131148 C61.2,59.2131148 60.5076923,59.7639344 60.5076923,60.5901639 L60.5076923,70.3672131 C60.5076923,71.0557377 61.0615385,71.7442623 61.8923077,71.7442623 L61.8923077,71.7442623 Z M63.2769231,61.8295082 L70.3384615,61.8295082 L70.3384615,68.9901639 L63.2769231,68.9901639 L63.2769231,61.8295082 L63.2769231,61.8295082 Z" id="Shape"></path>
                        <path d="M86.9538462,79.042623 L80.7230769,79.042623 L80.7230769,23.9606557 C80.7230769,22.7213115 79.7538462,21.6196721 78.3692308,21.6196721 L58.7076923,21.6196721 L58.7076923,3.71803279 C58.7076923,2.20327869 57.4615385,0.963934426 55.9384615,0.963934426 L49.8461538,0.963934426 C48.3230769,0.963934426 47.0769231,2.20327869 47.0769231,3.71803279 L47.0769231,8.12459016 L42.5076923,8.12459016 L42.5076923,3.71803279 C42.5076923,2.20327869 41.2615385,0.963934426 39.7384615,0.963934426 L33.6461538,0.963934426 C32.1230769,0.963934426 30.8769231,2.20327869 30.8769231,3.71803279 L30.8769231,21.6196721 L11.3538462,21.6196721 C10.1076923,21.6196721 9,22.5836066 9,23.9606557 L9,79.042623 L2.76923077,79.042623 C1.52307692,79.042623 0.415384615,80.0065574 0.415384615,81.3836066 C0.415384615,82.6229508 1.38461538,83.7245902 2.76923077,83.7245902 L11.2153846,83.7245902 L78.2307692,83.7245902 L86.6769231,83.7245902 C87.9230769,83.7245902 89.0307692,82.7606557 89.0307692,81.3836066 C89.3076923,80.0065574 88.2,79.042623 86.9538462,79.042623 L86.9538462,79.042623 Z M33.7846154,3.58032787 L39.8769231,3.58032787 L39.8769231,10.7409836 L49.9846154,10.7409836 L49.9846154,3.58032787 L56.0769231,3.58032787 L56.0769231,21.4819672 L49.9846154,21.4819672 L49.9846154,16.6622951 L39.8769231,16.6622951 L39.8769231,21.4819672 L33.7846154,21.4819672 L33.7846154,3.58032787 L33.7846154,3.58032787 Z M47.2153846,19.5540984 L47.2153846,21.6196721 L42.6461538,21.6196721 L42.6461538,19.5540984 L47.2153846,19.5540984 L47.2153846,19.5540984 Z M76.1538462,26.1639344 L76.1538462,74.0852459 L58.5692308,74.0852459 L58.5692308,60.452459 C58.5692308,59.6262295 58.0153846,59.0754098 57.1846154,59.0754098 L32.8153846,59.0754098 C32.1230769,59.0754098 31.4307692,59.6262295 31.4307692,60.452459 L31.4307692,74.0852459 L13.8461538,74.0852459 L13.8461538,26.1639344 L76.1538462,26.1639344 L76.1538462,26.1639344 Z M46.3846154,79.042623 L46.3846154,69.5409836 C46.3846154,68.7147541 45.8307692,68.1639344 45,68.1639344 C44.1692308,68.1639344 43.6153846,68.7147541 43.6153846,69.5409836 L43.6153846,79.042623 L34.2,79.042623 L34.2,61.9672131 L43.6153846,61.9672131 L43.6153846,64.5836066 C43.6153846,65.4098361 44.1692308,65.9606557 45,65.9606557 C45.8307692,65.9606557 46.3846154,65.4098361 46.3846154,64.5836066 L46.3846154,61.9672131 L55.8,61.9672131 L55.8,79.042623 L46.3846154,79.042623 L46.3846154,79.042623 Z M13.7076923,76.8393443 L31.2923077,76.8393443 L31.2923077,79.042623 L13.7076923,79.042623 L13.7076923,76.8393443 L13.7076923,76.8393443 Z M58.5692308,79.042623 L58.5692308,76.8393443 L76.1538462,76.8393443 L76.1538462,79.042623 L58.5692308,79.042623 L58.5692308,79.042623 Z" id="Shape"></path>
                    </g>
                </g>
                <g id="医生集团简介" fill="#FFFFFF" fill-opacity="1">
                    <use filter="url(#filter-3)" xlink:href="#text-2"></use>
                    <use xlink:href="#text-2"></use>
                </g>
            </g>
        </g>
    </g>
</svg>