<?xml version="1.0" encoding="UTF-8"?>
<svg width="359px" height="160px" viewBox="0 0 359 160" version="1.1" xmlns="http://www.w3.org/2000/svg" xmlns:xlink="http://www.w3.org/1999/xlink">
    <!-- Generator: Sketch 49.1 (51147) - http://www.bohemiancoding.com/sketch -->
    <title>card2</title>
    <desc>Created with Sketch.</desc>
    <defs>
        <rect id="path-1" x="0" y="0" width="359" height="160" rx="8"></rect>
        <rect id="path-3" x="0" y="0" width="57.5878543" height="71.713177"></rect>
        <filter x="-5.2%" y="-4.2%" width="110.4%" height="108.4%" filterUnits="objectBoundingBox" id="filter-4">
            <feOffset dx="0" dy="0" in="SourceAlpha" result="shadowOffsetOuter1"></feOffset>
            <feGaussianBlur stdDeviation="1" in="shadowOffsetOuter1" result="shadowBlurOuter1"></feGaussianBlur>
            <feColorMatrix values="0 0 0 0 0.702673257   0 0 0 0 0.702673257   0 0 0 0 0.702673257  0 0 0 0.5 0" type="matrix" in="shadowBlurOuter1"></feColorMatrix>
        </filter>
    </defs>
    <g id="Page-1" stroke="none" stroke-width="1" fill="none" fill-rule="evenodd">
        <g id="科研项目" transform="translate(-8.000000, -256.000000)">
            <g id="card2" transform="translate(8.000000, 256.000000)">
                <mask id="mask-2" fill="white">
                    <use xlink:href="#path-1"></use>
                </mask>
                <use id="Mask" fill="#67E0CC" xlink:href="#path-1"></use>
                <g id="flask" mask="url(#mask-2)" fill="#6FE8D9" fill-rule="nonzero">
                    <g transform="translate(290.000000, 93.000000)" id="Shape">
                        <path d="M46.5168093,27.1636953 C44.9922888,26.220543 43.8488575,24.3340762 43.8488575,22.4477715 L43.8488575,11.3181523 C46.7074358,11.129457 48.9941347,9.24315234 49.5658504,6.60222852 C49.7564769,4.90445703 49.3752239,3.20684766 48.2319564,2.075 C47.088525,0.754619141 45.5640045,0 43.8488575,0 L17.3601291,0 C14.5015508,0 12.0242254,2.075 11.4525097,4.71592383 C11.2618832,6.41369531 11.6431362,8.11130469 12.7864038,9.24315234 C13.9298351,10.5635332 15.4543556,11.3181523 17.1695026,11.3181523 L17.1695026,11.3181523 L17.1695026,22.4477715 C17.1695026,24.3340762 16.2166978,26.220543 14.5015508,27.1636953 C5.16380113,32.8227715 -0.362729074,43.1977715 0.0185238838,53.95 C0.590239552,69.4181523 13.3582832,82.2453809 28.9847414,83 L30.5092619,83 C38.3224911,83 45.754631,79.9818477 51.4716239,74.7 C57.569706,68.8522285 61,61.1181523 61,52.8181523 C60.9998362,42.2546191 55.4734698,32.6340762 46.5168093,27.1636953 Z M15.6449821,6.79092383 C15.2638929,6.41369531 15.2638929,5.84777148 15.2638929,5.28184766 C15.4545194,4.52722852 16.4073242,3.77277148 17.3601291,3.77277148 L43.8488575,3.77277148 C44.4205732,3.77277148 44.9922888,3.9614668 45.373378,4.52739062 C45.7544672,4.90461914 45.7544672,5.47054297 45.7544672,6.0364668 L45.7544672,6.0364668 C45.5638407,6.79108594 44.6110359,7.54554297 43.658231,7.54554297 L41.943084,7.54554297 L19.0751123,7.54554297 L17.1695026,7.54554297 C16.597787,7.54538086 16.0260713,7.35684766 15.6449821,6.79092383 Z M48.9941347,71.8703809 C43.658231,76.9635332 36.607344,79.4157617 29.1752041,79.0385332 C15.4543556,78.4726094 4.40145898,67.154457 3.82974331,53.5726094 C3.44865413,44.1407617 8.40330489,35.0863047 16.597787,29.9929902 C19.2657388,28.2952187 20.9808858,25.2770664 20.9808858,22.0702187 L20.9808858,11.3181523 L40.0376381,11.3181523 L40.0376381,22.4477715 C40.0376381,25.6546191 41.7527851,28.6727715 44.4207369,30.370543 C52.4245925,35.2751621 57.1887806,43.5751621 57.1887806,52.8183145 C57.1886168,60.175 54.3300385,66.9659238 48.9941347,71.8703809 Z"></path>
                        <path d="M30.500081,77 C17.1193211,77 6.37704143,66.6341078 6,53.2527128 C6,52.6872858 6.18852072,52.1218588 6.7539209,51.7449614 C7.31932109,51.3680641 7.88472128,51.1795344 8.45012147,51.3680641 C15.4232825,53.4412425 23.5270819,52.4989181 28.9924011,49.106356 C35.400162,44.7714694 45.200162,43.829145 53.3039614,46.4677505 C53.8693616,46.6562802 54.4347618,47.2217072 54.6231205,47.9755019 C55,49.4832533 55,50.9910047 55,52.4987561 C55,66.0686808 44.0691996,77 30.500081,77 Z M9.95763936,55.7027886 C11.4653192,65.6917834 20.1345188,73.2305405 30.499919,73.2305405 C41.9961196,73.2305405 51.2307194,63.9955024 51.2307194,52.4987561 C51.2307194,51.5564318 51.2307194,50.6141074 51.0421987,49.671621 C44.2575584,47.7869722 36.1537589,48.7292966 31.0653192,52.1216968 C25.4114793,55.8913183 17.3076798,57.21054 9.95763936,55.7027886 Z"></path>
                        <path d="M16.0285805,56 C13.0571611,56 10.2713556,55.6327211 7.29993616,54.7144449 C6.5570015,54.5307265 6,54.3471659 6,53.4288897 L6,52.3268951 C6,50.8576216 6.18577357,49.2046297 6.37138753,47.9190746 C6.5571611,47.1843589 6.92854863,46.81708 7.67132369,46.4498011 C15.2856459,43.8785329 24.7572249,44.7968092 31.0714514,48.6537903 C31.6286125,49.0210692 32,49.5720665 32,50.3067821 C32,50.8577794 31.6286125,51.5923373 31.0714514,51.959774 C30.8856778,51.959774 30.8856778,52.1434924 30.7000638,52.1434924 L30.5142903,52.1434924 C26.6143222,54.714287 21.414418,56 16.0285805,56 Z M9.71435411,51.5921795 C15.2858055,52.8777346 21.414418,52.3268951 26.0573207,50.3066243 C21.2286444,48.4700719 15.1000319,48.1026351 9.90012768,49.5719086 C9.89996808,50.3064665 9.71435411,50.8574638 9.71435411,51.5921795 Z"></path>
                    </g>
                </g>
                <g id="Group-5" mask="url(#mask-2)">
                    <g transform="translate(167.000000, 31.000000)">
                        <ellipse id="Oval-8-Copy" stroke="none" fill="#C0F3EB" fill-rule="evenodd" cx="62.5" cy="102" rx="62.5" ry="15"></ellipse>
                        <rect id="Rectangle-55" stroke="none" fill="#F1F1F1" fill-rule="evenodd" transform="translate(49.781997, 51.788531) rotate(-12.000000) translate(-49.781997, -51.788531) " x="23.2819972" y="18.7885306" width="53" height="66"></rect>
                        <rect id="Rectangle-55-Copy" stroke="none" fill="#F1F1F1" fill-rule="evenodd" transform="translate(72.234688, 43.058664) rotate(15.000000) translate(-72.234688, -43.058664) " x="43.4407608" y="7.20207562" width="57.5878543" height="71.713177"></rect>
                        <path d="M56,9 L85.9699707,18.4586502" id="Line-5-Copy-8" stroke="#979797" stroke-width="1" fill="none" stroke-linecap="square"></path>
                        <path d="M54,13.5413498 L94.969915,23 L54,13.5413498 Z M20,28 L55.5,19.5 L20,28 Z" id="Line-5-Copy-9" stroke="#979797" stroke-width="1" fill="none" stroke-linecap="square"></path>
                        <path d="M56,17.5413498 L96.969915,27 L56,17.5413498 Z M22,32 L57.5,23.5 L22,32 Z" id="Line-5-Copy-10" stroke="#979797" stroke-width="1" fill="none" stroke-linecap="square"></path>
                        <g id="Group" stroke="none" stroke-width="1" fill="none" fill-rule="evenodd" transform="translate(33.000000, 15.000000)">
                            <g id="Rectangle-55-Copy-2">
                                <use fill="black" fill-opacity="1" filter="url(#filter-4)" xlink:href="#path-3"></use>
                                <use fill="#F1F1F1" fill-rule="evenodd" xlink:href="#path-3"></use>
                            </g>
                            <path d="M2.5,7.5 L39.5500488,7.5" id="Line-5-Copy" stroke="#979797" stroke-linecap="square"></path>
                            <path d="M2.5,2.5 L44.5475921,2.5" id="Line-5" stroke="#979797" stroke-linecap="square"></path>
                            <path d="M2.5,12.5 L50.5500488,12.5" id="Line-5-Copy-2" stroke="#979797" stroke-linecap="square"></path>
                            <path d="M2.5,16.5 L26.5500488,16.5" id="Line-5-Copy-3" stroke="#979797" stroke-linecap="square"></path>
                            <path d="M2.5,20.5 L44.5475921,20.5" id="Line-5-Copy-7" stroke="#979797" stroke-linecap="square"></path>
                            <path d="M2.5,25.5 L39.5500488,25.5" id="Line-5-Copy-6" stroke="#979797" stroke-linecap="square"></path>
                            <path d="M2.5,30.5 L50.5500488,30.5" id="Line-5-Copy-5" stroke="#979797" stroke-linecap="square"></path>
                            <path d="M2.5,34.5 L26.5500488,34.5" id="Line-5-Copy-4" stroke="#979797" stroke-linecap="square"></path>
                        </g>
                        <path d="M53.5055781,60.9340771 C55.2505507,60.2783976 55.2669244,57 57.4396552,57 L96.1247465,57 C98.2974772,57 100.058824,58.7613463 100.058824,60.9340771 L100.058824,97.6521298 C100.058824,99.8248606 98.2974772,101.586207 96.1247465,101.586207 L57.4396552,101.586207 C57.1000464,101.586207 56.7704883,101.543175 56.4561359,101.462266 C56.1417835,101.543175 55.8122254,101.586207 55.4726166,101.586207 L27.9340771,101.586207 C25.7613463,101.586207 24,99.8248606 24,97.6521298 L24,65.5238337 C24,63.3511029 25.7613463,61.5897566 27.9340771,61.5897566 C43.8184294,61.5897566 52.3422631,61.3711968 53.5055781,60.9340771 Z" id="Combined-Shape" stroke="none" fill="#63E6D0" fill-rule="evenodd"></path>
                    </g>
                </g>
                <g id="writing" mask="url(#mask-2)" fill-rule="nonzero">
                    <g transform="translate(40.574030, 66.500000) rotate(15.000000) translate(-40.574030, -66.500000) translate(-39.925970, -20.000000)">
                        <path d="M11.9332207,165 L122.066779,165 C124.426847,165 126,163.429845 126,161.075118 L126,43.3249494 L102.4,43.3249494 C95.7132545,43.3249494 90.6,38.2225354 90.6,31.5499663 L90.6,8 L11.9332207,8 C9.57315306,8 8,9.57015516 8,11.9248819 L8,161.075118 C8,163.430182 9.57315306,165 11.9332207,165 Z" id="Shape" fill="none"></path>
                        <path d="M121.264726,173 L11.7352743,173 C5.08520711,173 0,167.888729 0,161.204576 L0,11.7954238 C0,5.11127148 5.08520711,0 11.7352743,0 L93.8825309,0 C96.229653,0 97.794177,1.57288086 97.794177,3.93169531 L97.794177,31.4545762 C97.794177,33.8137285 99.3590371,35.3862715 101.705823,35.3862715 L129.088354,35.3862715 C131.435476,35.3862715 133,36.9591523 133,39.3179668 L133,161.204238 C133.000336,167.888729 127.914793,173 121.264726,173 Z M11.7352743,7.86372852 C9.38815224,7.86372852 7.82362828,9.43660937 7.82362828,11.7954238 L7.82362828,161.204576 C7.82362828,163.563729 9.38848841,165.136271 11.7352743,165.136271 L121.264726,165.136271 C123.611848,165.136271 125.176372,163.563391 125.176372,161.204576 L125.176372,43.25 L101.705823,43.25 C95.0557558,43.25 89.9705487,38.1387285 89.9705487,31.4545762 L89.9705487,7.86372852 L11.7352743,7.86372852 Z" id="Shape" fill="#6FE8D9"></path>
                        <path d="M101.928764,35 L120,35 L98,13 L98,31.0712357 C98,33.4287643 99.5715733,35 101.928764,35 Z" id="Shape" fill="none"></path>
                        <path d="M129.076619,43 L101.722919,43 C95.0798531,43 90,37.9201294 90,31.2770408 L90,3.92358122 C90,2.36036327 90.7814384,0.797481147 92.3446509,0.406592707 C93.9078634,-0.374848356 95.4707401,0.015704268 96.6430656,1.18803377 L131.811822,36.3569114 C132.984147,37.5292409 133.375034,39.0921231 132.59326,40.655341 C132.202709,42.2185589 130.639832,43 129.076619,43 Z M97.815391,13.3018814 L97.815391,31.2770408 C97.815391,33.6216998 99.3786036,35.1845819 101.722919,35.1845819 L119.698016,35.1845819 L97.815391,13.3018814 Z" id="Shape" fill="#6FE8D9"></path>
                        <path d="M75.0667793,130 L23.9332207,130 C21.5731531,130 20,128.399794 20,126 C20,123.600206 21.5734911,122 23.9332207,122 L75.0667793,122 C77.4268469,122 79,123.600206 79,126 C79,128.399794 77.4268469,130 75.0667793,130 Z" id="Shape" fill="#6FE8D9"></path>
                        <path d="M63.0834455,67 L23.9165545,67 C21.5664872,67 20,65.3997937 20,63 C20,60.6002063 21.5668237,59 23.9165545,59 L63.0834455,59 C65.4335128,59 67,60.6002063 67,63 C67,65.3997937 65.4335128,67 63.0834455,67 Z" id="Shape" fill="#6FE8D9"></path>
                        <path d="M82.1112225,83 L54.8887775,83 C52.5553773,83 51,81.3997937 51,79 C51,76.6002063 52.5557115,75 54.8887775,75 L82.1112225,75 C84.4446227,75 86,76.6002063 86,79 C86,81.3997937 84.4446227,83 82.1112225,83 Z" id="Shape" fill="#6FE8D9"></path>
                        <path d="M95.0000573,67 L78.9999427,67 C76.5998396,67 75,65.3997937 75,63 C75,60.6002063 76.6001833,59 78.9999427,59 L95.0000573,59 C97.4001604,59 99,60.6002063 99,63 C99,65.3997937 97.4001604,67 95.0000573,67 Z" id="Shape" fill="#6FE8D9"></path>
                        <path d="M59.0913367,98 L23.9089993,98 C21.5634653,98 20,96.3997937 20,94 C20,91.6002063 21.5638013,90 23.9089993,90 L59.0910007,90 C61.4365347,90 63,91.6002063 63,94 C63,96.3997937 61.4365347,98 59.0913367,98 Z" id="Shape" fill="#6FE8D9"></path>
                        <path d="M40.000401,114 L23.9999427,114 C21.5998396,114 20,112.399794 20,110 C20,107.599862 21.6001833,106 23.9999427,106 L40.0000572,106 C42.4001604,106 43.9999999,107.600206 43.9999999,110 C44.0003437,112.399794 42.4005041,114 40.000401,114 Z" id="Shape" fill="#6FE8D9"></path>
                        <path d="M40.000401,83 L23.9999427,83 C21.5998396,83 20,81.3997937 20,79 C20,76.6002063 21.6001833,75 23.9999427,75 L40.0000573,75 C42.4001604,75 44,76.6002063 44,79 C44,81.3997937 42.4005042,83 40.000401,83 Z" id="Shape" fill="#6FE8D9"></path>
                        <path d="M83.0000859,98 L74.9999141,98 C72.5998281,98 71,96.3997937 71,94 C71,91.6002063 72.6001719,90 74.9999141,90 L83.0000859,90 C85.4001719,90 87,91.6002063 87,94 C87,96.3997937 85.4001719,98 83.0000859,98 Z" id="Shape" fill="#6FE8D9"></path>
                        <path d="M71.0000573,114 L54.9999427,114 C52.5998396,114 51,112.399794 51,110 C51,107.599862 52.6001833,106 54.9999427,106 L71.0000573,106 C73.4001604,106 75,107.600206 75,110 C75,112.399794 73.3998167,114 71.0000573,114 Z" id="Shape" fill="#6FE8D9"></path>
                        <rect id="Rectangle-path" fill="#67E0CC" transform="translate(121.500000, 94.500000) rotate(135.000000) translate(-121.500000, -94.500000) " x="98" y="87" width="47" height="15"></rect>
                        <path d="M157.060855,61.3156966 L154.69703,58.9472256 C152.333204,56.5787545 148.787466,55 145.242067,55 L145.242067,55 C141.696329,55 138.150929,56.5790938 135.787104,58.9472256 L91.2691826,103.552639 C90.8750989,103.947497 90.4813537,104.736874 90.08727,105.526252 L90.08727,105.526252 L86.1477867,125.263058 C85.7537029,126.447293 86.1477867,128.026048 87.3296994,128.815764 C88.1175283,129.605142 88.9056958,130 90.08727,130 L90.8750989,130 L110.573192,126.052774 L110.573192,126.052774 C111.361021,126.052774 112.149189,125.657916 112.542934,124.868539 L157.060517,80.263465 C159.424342,77.8949939 161,74.3422874 161,70.78992 C161.000339,67.2368742 159.424342,63.6841677 157.060855,61.3156966 Z M95.2090045,120.920974 L96.3909171,114.210419 L101.906397,119.736739 L95.2090045,120.920974 Z M109.785363,116.57889 L99.5422329,106.315629 L133.42294,72.3683354 L143.66607,82.6315968 L109.785363,116.57889 Z M151.545376,74.7368064 L149.18155,77.1052774 L138.93842,66.842016 L141.302245,64.4735449 C142.484158,63.2893094 143.66607,62.8944512 145.241728,62.8944512 L145.241728,62.8944512 C146.817725,62.8944512 147.999299,63.2893094 149.181212,64.4735449 L151.545037,66.842016 C152.72695,68.0262515 153.121033,69.210487 153.121033,70.7892416 C153.121033,72.3679961 152.333204,73.5525709 151.545376,74.7368064 Z" id="Shape" fill="#6FE8D9"></path>
                    </g>
                </g>
                <rect id="Rectangle" fill-opacity="0.6" fill="#FFFFFF" mask="url(#mask-2)" x="-8" y="120" width="375" height="40"></rect>
                <text id="科研课题文件下载" mask="url(#mask-2)" font-family="PingFangSC-Regular, PingFang SC" font-size="18" font-weight="normal" line-spacing="18" letter-spacing="0.200000003" fill="#333333">
                    <tspan x="8" y="150">科研课题文件下载</tspan>
                </text>
            </g>
        </g>
    </g>
</svg>