<?xml version="1.0" encoding="UTF-8"?>
<svg width="359px" height="160px" viewBox="0 0 359 160" version="1.1" xmlns="http://www.w3.org/2000/svg" xmlns:xlink="http://www.w3.org/1999/xlink">
    <!-- Generator: Sketch 49.1 (51147) - http://www.bohemiancoding.com/sketch -->
    <title>card1</title>
    <desc>Created with Sketch.</desc>
    <defs>
        <rect id="path-1" x="0" y="0" width="359" height="160" rx="8"></rect>
    </defs>
    <g id="Page-1" stroke="none" stroke-width="1" fill="none" fill-rule="evenodd">
        <g id="实名认证" transform="translate(-8.000000, -266.000000)">
            <g id="card1" transform="translate(8.000000, 266.000000)">
                <mask id="mask-2" fill="white">
                    <use xlink:href="#path-1"></use>
                </mask>
                <g id="Mask">
                    <use fill="#DCDCDC" fill-rule="evenodd" xlink:href="#path-1"></use>
                    <rect stroke="#666666" stroke-width="1" x="0.5" y="0.5" width="358" height="159" rx="8"></rect>
                </g>
                <g id="diploma" mask="url(#mask-2)" fill="#C5C5C5" fill-rule="nonzero">
                    <g transform="translate(329.873279, 128.846761) rotate(-330.000000) translate(-329.873279, -128.846761) translate(292.373279, 91.346761)" id="Shape">
                        <path d="M69.886377,54 L5.11362305,54 C2.21586914,54 0,51.8062917 0,48.9375181 L0,5.06248187 C-5.77337657e-16,2.19370831 2.21586914,0 5.11362305,0 L69.886377,0 C72.7841309,0 75,2.19370831 75,5.06248187 L75,48.9373731 C75,51.8061467 72.7841309,54 69.886377,54 Z M5.11362305,3.37503625 C4.09086914,3.37503625 3.40913086,4.05010151 3.40913086,5.06248187 L3.40913086,48.9373731 C3.40913086,49.9498985 4.09101562,50.6248187 5.11362305,50.6248187 L69.886377,50.6248187 C70.9091309,50.6248187 71.5908691,49.9497535 71.5908691,48.9373731 L71.5908691,5.06248187 C71.5908691,4.04995649 70.9089844,3.37503625 69.886377,3.37503625 L5.11362305,3.37503625 Z"></path>
                        <path d="M47.2857564,12 L26.7142436,12 C25.6856385,12 25,11.3999484 25,10.5000645 C25,9.60018047 25.6856385,9 26.7142436,9 L47.2857564,9 C48.3143615,9 49,9.60005156 49,10.4999355 C49,11.3998195 48.3143615,12 47.2857564,12 Z"></path>
                        <path d="M37.2943073,27 L11.7058392,27 C10.6822771,27 10,26.3999227 10,25.5 C10,24.5999484 10.6824237,24 11.7058392,24 L37.2941607,24 C38.3177229,24 39,24.6000773 39,25.5 C39.0001466,26.3999227 38.3178695,27 37.2943073,27 Z"></path>
                        <path d="M30.307737,34 L11.6922629,34 C10.676847,34 10,33.3999227 10,32.5 C10,31.5999484 10.6769924,31 11.6922629,31 L30.307737,31 C31.323153,31 32,31.6000773 32,32.5 C32.0001454,33.4000516 31.323153,34 30.307737,34 Z"></path>
                        <path d="M42.2500376,18 L31.7499624,18 C30.6999248,18 30,17.3999227 30,16.5 C30,15.6000773 30.7000752,15 31.7499624,15 L42.2500376,15 C43.3000752,15 44,15.6000773 44,16.5 C44,17.3999227 43.3000752,18 42.2500376,18 Z"></path>
                        <path d="M55.2500376,27 L44.7499624,27 C43.6999248,27 43,26.3999227 43,25.5 C43,24.5999484 43.7000752,24 44.7499624,24 L55.2500376,24 C56.3000752,24 57,24.6000773 57,25.5 C57,26.3999227 56.2999248,27 55.2500376,27 Z"></path>
                        <path d="M25.3000475,46 L21.560035,46 C20.2000438,46 18.8400526,45.4908958 17.9900763,44.4726875 L16.2901238,42.7757708 C15.6100551,42.0969167 14.5901713,42.0969167 13.9101026,42.7757708 L12.8900727,43.7939792 C12.210004,44.4728333 11.1901202,44.4728333 10.5100515,43.7939792 C9.82998283,43.115125 9.82998283,42.0970625 10.5100515,41.4182083 L11.5300814,40.4 C13.4000877,38.5333333 16.8001388,38.5333333 18.670145,40.4 L20.3700975,42.0969167 C20.7100588,42.4362708 21.0501662,42.6060208 21.560035,42.6060208 L25.3000475,42.6060208 C26.3200774,42.6060208 27,43.284875 27,44.3029375 C27.0001461,45.3211458 26.3200774,46 25.3000475,46 Z"></path>
                        <path d="M42.5333626,43.75 C42.703785,45.779446 42.0222417,47.8087466 41,49.5 C42.0222417,51.1911081 42.7036386,53.220554 42.5333626,55.25 C44.4074237,56.095554 45.7703639,57.6176385 46.7926056,59.4779155 L47.3037265,59.4779155 C49.1777875,59.4779155 50.8814262,59.985277 52.4147888,61 C54.1184274,59.8162534 56.1629109,59.3088919 58.2073944,59.4779155 C59.0592137,57.6176385 60.5925763,56.264723 62.4666374,55.25 C62.296215,53.220554 62.8073358,51.1912534 64,49.5 C62.8074822,47.8088919 62.2963614,45.779446 62.4666374,43.75 C60.5925763,42.904446 59.2296361,41.3823615 58.2073944,39.5220845 C56.1629109,39.6912534 54.1185738,39.1838919 52.4147888,38 C50.7111502,39.1837466 48.6666667,39.6911081 46.6221832,39.5220845 C45.7703639,41.3823615 44.4074237,42.904446 42.5333626,43.75 Z"></path>
                        <path d="M52,57 C48.1499624,57 45,53.8500376 45,50 C45,46.1499624 48.1499624,43 52,43 C55.8500376,43 59,46.1499624 59,50 C59,53.8500376 55.8500376,57 52,57 Z M52,46.4999248 C50.0749812,46.4999248 48.4999248,48.0749812 48.4999248,50 C48.4999248,51.9250188 50.0749812,53.5000752 52,53.5000752 C53.9250188,53.5000752 55.5000752,51.9250188 55.5000752,50 C55.5000752,48.0749812 53.9250188,46.4999248 52,46.4999248 Z"></path>
                        <path d="M67.6133829,48.1777455 C66.2385967,46.8153402 65.7230334,44.771659 66.2385967,42.8983334 C66.4105003,42.0468483 65.894937,41.1953633 65.0357141,40.8546522 C63.1453646,40.3437319 61.7705784,38.810971 61.0831114,36.9376453 C60.7394518,36.0861603 59.8802289,35.57524 59.0208582,35.7455956 C57.1305087,36.0861603 55.0682555,35.57524 53.6934693,34.3831902 C53.0060024,33.8722699 51.9750235,33.8722699 51.4594602,34.3831902 C50.0846739,35.7455956 48.0224208,36.2565159 46.1320713,35.7455956 C45.2728483,35.57524 44.4136254,36.0861603 44.0698181,36.9376453 C43.5542548,38.810971 42.0075649,40.1733763 40.1172154,40.8546522 C39.6016521,41.0250077 39.2579925,41.3655725 39.0860888,41.7061372 C38.9141851,42.046702 38.9141851,42.3874131 38.9141851,42.898187 C39.2578448,44.7715126 38.7422815,46.8151938 37.3674953,48.3478084 C36.851932,49.0290842 36.851932,49.8805692 37.5393989,50.5616987 C38.9141851,51.9241041 39.4297484,53.9677853 38.9141851,56.0113201 C38.7422815,56.8628051 39.2578448,57.7142902 40.1170677,57.8846457 C42.0074172,58.395566 43.3822034,59.9283269 43.8977667,61.631297 L43.8977667,73.2118156 C43.8977667,73.7227358 44.2414264,74.4038653 44.7569897,74.7445764 C45.272553,75.0851412 45.9598722,75.0851412 46.4754355,74.7445764 L52.6620474,71.679201 L58.8486592,74.7445764 C59.0205629,74.914932 59.3642225,74.914932 59.5361262,74.914932 C59.8797858,74.914932 60.2235931,74.914932 60.3953491,74.7445764 C60.9109124,74.4040117 61.254572,73.8930914 61.254572,73.2118156 L61.254572,61.4609414 C61.942039,59.7579714 63.3168252,58.395566 65.0352711,57.7142902 C65.894494,57.3737254 66.4100573,56.5222404 66.2381536,55.670609 C65.894494,53.7972834 66.4100573,51.7536022 67.6129398,50.3911968 C68.1289462,49.8807156 68.1289462,48.8590214 67.6133829,48.1777455 Z M53.3498097,68.2734072 C53.0061501,68.1030517 52.8342464,68.1030517 52.4905868,68.1030517 C52.1469271,68.1030517 51.9750235,68.1030517 51.8031198,68.2734072 L47.3349538,70.4872976 L47.3349538,62.8236395 C48.8816437,62.8236395 50.2564299,63.3345598 51.2875565,64.3564004 C51.6312161,64.6969651 51.9750235,64.8673207 52.4904391,64.8673207 C53.0060024,64.8673207 53.349662,64.6969651 53.6933216,64.3564004 C54.7244482,63.3345598 56.2711381,62.8236395 57.6459243,62.8236395 L57.6459243,70.4872976 L53.3498097,68.2734072 Z M62.6298013,55.1601278 C60.7394518,56.0116128 59.3646656,57.5443737 58.333539,59.4176993 C56.2712858,59.2473438 54.2091803,59.7582641 52.4905868,60.9504602 C50.9438969,59.9286196 49.0535474,59.4176993 47.3351015,59.4176993 L46.8195382,59.4176993 C45.9603153,57.5443737 44.4136254,56.1819683 42.5232759,55.1601278 C42.6951795,53.1164466 42.0077126,51.0729117 40.976586,49.3697953 C42.1794686,47.6668252 42.6950319,45.623144 42.5232759,43.5794628 C44.4136254,42.7279778 45.7884116,41.1952169 46.8195382,39.3218913 C48.8817914,39.4922468 50.9438969,38.9813265 52.6624904,37.7891304 C54.3809363,38.9811802 56.4431895,39.4921005 58.5054426,39.3218913 C59.3646656,41.1952169 60.9113554,42.5576223 62.801705,43.5794628 C62.6298013,45.623144 63.1453646,47.6666789 64.3483948,49.3697953 C62.9734609,51.0729117 62.4578976,53.1165929 62.6298013,55.1601278 Z"></path>
                    </g>
                </g>
                <g id="certificate" mask="url(#mask-2)" fill-rule="nonzero">
                    <g transform="translate(43.181655, 35.270473) rotate(-130.000000) translate(-43.181655, -35.270473) translate(-20.818345, 0.270473)">
                        <path d="M109.323184,45.5834043 L108.744823,45.5834043 C97.465165,42.6950355 83.5830058,41.2508511 68.5438757,40.9619149 C67.3869049,40.9619149 66.2301825,40.0953546 65.9408777,38.9401064 C63.0488233,29.6971277 63.0488233,17.5655319 65.9408777,8.32255319 C66.2301825,7.16705674 67.3869049,6.30074468 68.5438757,6.30074468 C83.293701,6.01180851 97.4654136,4.27893617 108.744575,1.67925532 C110.190602,1.39031915 111.636629,1.96819149 112.215239,3.41237589 C112.7936,4.85656028 112.215239,6.30074468 111.058268,6.87861702 C107.587604,8.32280142 104.117188,14.3887234 104.117188,23.342766 C104.117188,32.0081206 107.587852,38.3627305 110.769212,40.0958511 C111.926183,40.6734752 112.504544,42.4065957 112.215239,43.5620922 C111.636878,44.716844 110.479907,45.5834043 109.323184,45.5834043 Z M70.8575689,35.1849291 C81.8476738,35.4738652 92.5487223,36.6291135 101.803495,38.0732979 C99.4898019,34.0294326 98.3328311,28.8303191 98.3328311,23.3422695 C98.3328311,17.8542199 99.4898019,12.6548582 101.51419,8.61124113 C92.2594175,10.3443617 81.8476738,11.210922 70.5682641,11.4996099 C69.1222369,18.7207801 69.1222369,27.9640071 70.8575689,35.1849291 Z" id="Shape" fill="#C5C5C5"></path>
                        <path d="M51.1910524,40.9619149 C50.0340816,40.9619149 48.8773592,40.3842908 48.5880544,39.2287943 C48.2987495,38.9398582 48.2987495,38.362234 48.2987495,38.0732979 C45.6957515,28.8303191 45.9850563,16.6987234 48.5880544,7.74443262 C48.8773592,6.58893617 50.3233864,5.72262411 51.4801087,5.72262411 C54.661468,5.72262411 57.8428272,6.01156028 60.7348816,6.01156028 L66.5192388,6.01156028 L68.2545709,6.01156028 C69.1222369,6.01156028 69.9899029,6.30049645 70.5682641,7.16705674 C71.1466252,8.03361702 71.4359301,8.9001773 71.1466252,9.76673759 C68.832932,17.8544681 68.832932,29.1195035 71.1466252,37.2069858 C71.4359301,38.0735461 71.1466252,38.9401064 70.5682641,39.8066667 C69.9899029,40.673227 69.4112932,40.9621631 68.2545709,40.673227 L67.965266,40.673227 L66.229934,40.673227 L60.4458252,40.673227 C58.132132,40.673227 54.661468,40.673227 51.1910524,40.9619149 L51.1910524,40.9619149 Z M53.5047456,11.4996099 C51.7694136,18.7207801 51.7694136,27.9637589 53.5047456,35.1849291 C56.1077437,35.1849291 58.7104932,34.8959929 60.7351301,34.8959929 L64.7841553,34.8959929 C63.3381282,27.6748227 63.3381282,19.0094681 64.7841553,11.7882979 L60.7351301,11.7882979 C58.4214369,11.7885461 55.8184388,11.4996099 53.5047456,11.4996099 Z" id="Shape" fill="#C5C5C5"></path>
                        <path d="M14.4607689,46.4499645 C6.36271845,46.4499645 0,36.3404255 0,23.3422695 C0,10.3441135 6.36271845,0.234574468 14.4607689,0.234574468 C15.0391301,0.234574468 15.328435,0.234574468 15.6177398,0.523510638 C25.4511223,3.12319149 37.8872544,5.145 51.1910524,5.72262411 C52.0587184,5.72262411 52.9263845,6.30024823 53.5047456,6.87812057 C54.0831068,7.74468085 54.0831068,8.61124113 53.7940505,9.47780142 C51.4803573,17.2765957 51.1910524,28.5416312 53.5047456,36.6293617 L53.5047456,36.6293617 C53.5047456,36.9182979 53.5047456,36.9182979 53.7940505,37.2069858 C54.0833553,38.0735461 54.0833553,38.9401064 53.5047456,39.8066667 C52.9263845,40.673227 52.0587184,40.9621631 51.1910524,41.2508511 C46.2743612,41.5397872 41.3576699,41.8284752 36.4412272,42.4063475 C28.6324816,43.2729078 21.4020971,44.7170922 15.3286835,46.4502128 C15.0391301,46.4499645 14.7498252,46.4499645 14.4607689,46.4499645 Z M13.8824078,6.01156028 C10.1226874,6.5891844 5.78435728,13.5216667 5.78435728,23.3422695 C5.78435728,33.1628723 10.1226874,40.3842908 14.1714641,40.6729787 C20.5341825,38.9398582 27.764567,37.4956738 35.8626175,36.6291135 C39.9116427,36.0514894 43.6713631,35.7625532 47.7203883,35.473617 C45.9850563,27.9635106 45.9850563,18.7205319 47.7203883,11.2106738 C34.9949515,10.3443617 23.4264854,8.61124113 13.8824078,6.01156028 Z" id="Shape" fill="#C5C5C5"></path>
                        <path d="M112.7936,0.234574468 C104.69555,0.234574468 98.3328311,10.3441135 98.3328311,23.3422695 C98.3328311,36.3404255 104.69555,46.4499645 112.7936,46.4499645 C114.239627,46.4499645 115.396598,46.1610284 116.842625,45.5834043 C114.818237,49.3383333 112.7936,51.649078 110.769212,52.2269504 C94.2840544,41.539539 78.6663146,35.7628014 63.9164893,34.8962411 C62.4704621,34.8962411 61.024435,36.0517376 61.024435,37.7846099 C61.024435,39.5177305 62.1814058,40.6729787 63.9164893,40.6729787 C77.7988971,41.2506028 92.8380272,47.0275887 108.744823,57.4260638 C109.323184,57.715 109.901794,58.0036879 110.480155,58.0036879 C120.891899,58.0036879 127.832979,40.0953546 127.832979,23.3422695 C127.254369,10.3443617 120.89165,0.234574468 112.7936,0.234574468 Z M112.7936,40.673227 C108.744575,40.673227 104.117188,33.4520567 104.117188,23.3425177 C104.117188,13.2329787 108.744575,6.01180851 112.7936,6.01180851 C116.842625,6.01180851 121.470012,13.2329787 121.470012,23.3425177 C121.470012,33.4520567 116.842625,40.673227 112.7936,40.673227 Z" id="Shape" fill="#C5C5C5"></path>
                        <ellipse id="Oval" fill="#DCDCDC" cx="57.8428272" cy="37.7846099" rx="11.568466" ry="11.5537234"></ellipse>
                        <ellipse id="Oval" fill="#DCDCDC" cx="57.8428272" cy="37.7846099" rx="5.78435728" ry="5.77698582"></ellipse>
                        <path d="M75.1956505,37.7846099 C75.1956505,28.252695 67.3869049,20.4539007 57.8428272,20.4539007 C48.2987495,20.4539007 40.4900039,28.252695 40.4900039,37.7846099 C40.4900039,42.9837234 42.8036971,47.605461 46.2743612,50.4938298 L46.2743612,66.6692908 C46.2743612,67.8247872 46.8527223,68.6910993 47.7203883,69.2689716 C48.5880544,69.8465957 49.7447767,69.8465957 50.6124427,69.2689716 L57.5535223,64.6474823 L64.4946019,69.2689716 C65.0729631,69.5579078 65.6515728,69.8465957 66.229934,69.8465957 C66.8082951,69.8465957 67.0976,69.8465957 67.6759612,69.5576596 C68.5436272,68.9800355 69.1219883,68.1134752 69.1219883,66.9579787 L69.1219883,50.7825177 C72.8819573,47.3165248 75.1956505,42.6950355 75.1956505,37.7846099 Z M57.8428272,26.2308865 C64.2055456,26.2308865 69.4112932,31.43 69.4112932,37.7846099 C69.4112932,44.1392199 64.2055456,49.3383333 57.8428272,49.3383333 C51.4801087,49.3383333 46.2743612,44.1392199 46.2743612,37.7846099 C46.2743612,31.43 51.4801087,26.2308865 57.8428272,26.2308865 Z M63.6271845,61.1812411 L59.5781592,58.2928723 C58.9997981,58.2928723 58.4211883,58.0039362 57.8428272,58.0039362 C57.264466,58.0039362 56.6858563,58.2928723 56.1074951,58.5815603 L52.0584699,61.4699291 L52.0584699,54.2487589 C53.7938019,54.826383 55.8181903,55.1153191 57.8428272,55.1153191 C59.8674641,55.1153191 61.8918524,54.826383 63.6271845,53.9598227 L63.6271845,61.1812411 Z" id="Shape" fill="#C5C5C5"></path>
                    </g>
                </g>
                <g id="hat" mask="url(#mask-2)" fill="#C5C5C5" fill-rule="nonzero">
                    <g transform="translate(154.000000, 22.000000)" id="Shape">
                        <path d="M63.5,101.44897 C48.4909316,101.44897 31.1727949,95.9454421 20.7818633,88.4141545 C18.4727949,86.6761459 17.3181367,84.069133 17.3181367,81.172618 L17.3181367,48.7309528 C17.3181367,47.8619485 17.8953418,46.9929442 18.4727949,46.413691 C19.3387266,45.8344378 20.2046582,45.8344378 21.0705898,46.1239399 L58.5933848,60.0277597 C62.6343164,61.4760172 67.2524531,61.4760172 71.0046582,60.0277597 L105.640932,46.7034421 C106.506863,46.413691 107.661273,46.413691 108.238727,46.9931931 C109.104658,47.5724464 109.393385,48.4414506 109.393385,49.3104549 L109.393385,81.1731159 C109.393385,84.0696309 108.238727,86.3868927 105.929658,88.1249013 C95.8272051,95.9454421 78.5090684,101.44897 63.5,101.44897 Z M23.0909316,52.7862232 L23.0909316,81.172867 C23.0909316,82.0418712 23.3796582,82.9108755 24.2455898,83.4901288 C33.4818633,90.7316652 49.6455898,95.6559399 63.500248,95.6559399 C77.3549062,95.6559399 93.2299063,90.7316652 102.754906,83.7798798 C103.620838,83.2006266 103.909564,82.3316223 103.909564,81.462618 L103.909564,53.3654764 L73.3142227,65.2415365 C68.4073594,67.2690472 62.3460859,67.2690472 56.8620176,65.2415365 L23.0909316,52.7862232 Z"></path>
                        <path d="M64.9431367,58 C62.0568633,58 59.4590684,57.4207468 56.5727949,56.5517425 L6.35,38.0133991 C2.59779492,36.5651416 0,33.0891245 0,28.7443519 C0,24.6890815 2.59779492,21.2130644 6.35,19.7648069 L53.3977949,1.80596567 C55.9955898,0.6472103 58.8818633,0.0679570815 61.7681367,0.0679570815 C64.6544102,0.0679570815 67.5409316,0.6472103 70.4272051,1.51621459 L120.65,20.0545579 C124.402205,21.5028155 127,24.9788326 127,29.034103 C127,33.0893734 124.402205,36.8548927 120.361273,38.3031502 L73.3134785,56.2619914 C70.7159316,57.4207468 67.8296582,58 64.9431367,58 Z M62.0568633,5.86098712 C59.7477949,5.86098712 57.7272051,6.1507382 55.4181367,7.01974249 L8.3703418,25.2683348 C6.06127344,26.1373391 5.77254687,28.1648498 5.77254687,28.7443519 C5.77254687,29.3238541 6.06127344,31.640867 8.3703418,32.5098712 L58.5931367,51.0482146 C62.6340684,52.4964721 67.2522051,52.4964721 71.0044102,51.0482146 L118.340684,32.7996223 C121.226957,31.930618 121.226957,29.6133562 121.226957,29.034103 C121.226957,27.2960944 120.361025,26.137588 118.629162,25.5580858 L68.4068633,7.01974249 C66.3862734,6.1507382 64.0772051,5.86098712 62.0568633,5.86098712 Z"></path>
                        <path d="M64.9431367,66.689794 C62.0568633,66.689794 59.4590684,66.1105408 56.5727949,65.2415365 L6.35,46.7031931 C2.59779492,45.2549356 0,41.7789185 0,37.7236481 L0,37.1443948 L0,28.7443519 C0,27.0063433 1.1546582,25.8478369 2.88627344,25.8478369 C4.61788867,25.8478369 5.77254687,27.0065923 5.77254687,28.7443519 C5.77254687,29.3236052 6.06127344,31.640867 8.3703418,32.5098712 L58.5931367,51.0482146 C62.6340684,52.4964721 67.2522051,52.4964721 71.0044102,51.0482146 L118.340684,32.7996223 C121.226957,31.930618 121.226957,29.6133562 121.226957,29.034103 C121.226957,27.2960944 122.381615,26.137588 124.11323,26.137588 C125.844846,26.137588 127,27.2960944 127,29.0338541 L127,37.7236481 L127,38.3029013 C126.711273,42.3581717 124.113727,45.8341888 120.361273,46.9926953 L73.3134785,64.9515365 C70.7159316,66.1105408 67.8296582,66.689794 64.9431367,66.689794 Z M5.77279492,38.0133991 C5.77279492,38.8824034 6.35,40.620412 8.37058984,41.1996652 L58.5933848,59.7380086 C62.6343164,61.1862661 67.2524531,61.1862661 71.0046582,59.7380086 L118.340932,41.4894163 C120.072795,40.9101631 121.227205,39.4619056 121.227205,37.723897 C120.938479,38.0136481 120.65,38.0136481 120.361273,38.0136481 L73.3134785,55.9724893 C68.4066152,58 62.3453418,58 56.8612734,55.9724893 L6.35,38.0133991 C6.35,38.0133991 6.06127344,37.7236481 5.77279492,38.0133991 C5.77279492,37.7236481 5.77279492,38.0133991 5.77279492,38.0133991 Z"></path>
                        <path d="M106.506863,105.793991 L104.197795,95.9454421 C105.929658,94.4971845 106.79559,92.1799227 106.79559,89.5729099 C106.79559,85.8073906 104.486521,82.6211245 101.022795,81.4623691 L101.022795,46.7031931 L101.022795,46.7031931 L101.022795,44.6756824 C101.022795,42.3584206 99.5796582,40.3306609 97.5590684,39.1721545 L75.0453418,29.9031073 C75.0453418,29.6133562 75.3340684,29.3238541 75.3340684,29.034103 C75.3340684,25.8478369 70.7159316,23.240824 65.2318633,23.240824 C59.7477949,23.240824 54.8409316,25.8478369 54.8409316,29.034103 C54.8409316,32.2203691 59.4590684,34.827382 64.9431367,34.827382 C66.675,34.827382 68.4068633,34.5376309 69.85,34.2481288 L93.5181367,43.806927 C94.6727949,44.3861803 95.25,45.2551845 95.25,46.4139399 L95.25,81.752618 C91.7862734,82.9113734 89.4772051,86.0976395 89.4772051,89.8631588 C89.4772051,92.4701717 90.6318633,94.4976824 92.075,96.235691 L89.7659316,106.08424 C89.4772051,106.663494 89.4772051,107.242996 89.4772051,107.822249 C89.4772051,112.16727 92.9409316,115.93279 97.5590684,115.93279 L98.7137266,115.93279 C103.043385,115.93279 106.79559,112.456773 106.79559,107.822249 C106.795342,107.242249 106.795342,106.662996 106.506863,105.793991 Z M98.1362734,86.9661459 C99.8681367,86.9661459 101.022547,88.1249013 101.022547,89.8626609 C101.022547,91.6006695 99.8678887,92.759176 98.1362734,92.759176 C96.4044102,92.759176 95.25,91.6004206 95.25,89.8626609 C95.25,88.1246524 96.4046582,86.9661459 98.1362734,86.9661459 Z M98.7137266,110.139013 L97.5590684,110.139013 C96.4044102,110.139013 95.25,108.980258 95.25,107.821751 L95.25,107.242498 L97.5590684,98.5527039 L98.7137266,98.5527039 L101.022795,107.242498 L101.022795,107.821751 C101.022795,108.980258 100.156863,110.139013 98.7137266,110.139013 Z"></path>
                    </g>
                </g>
                <rect id="Rectangle-37" fill="#FFFFFF" opacity="0.6" mask="url(#mask-2)" x="0" y="120" width="359" height="40"></rect>
                <text id="认证学术身份(深度)" mask="url(#mask-2)" font-family="PingFangSC-Regular, PingFang SC" font-size="18" font-weight="normal" line-spacing="18" letter-spacing="0.200000003" fill="#333333">
                    <tspan x="8" y="150">认证学术身份(深度)</tspan>
                </text>
            </g>
        </g>
    </g>
</svg>