<?xml version="1.0" encoding="UTF-8"?>
<svg width="285px" height="367px" viewBox="0 0 285 367" version="1.1" xmlns="http://www.w3.org/2000/svg" xmlns:xlink="http://www.w3.org/1999/xlink">
    <!-- Generator: Sketch 49.1 (51147) - http://www.bohemiancoding.com/sketch -->
    <title>ill</title>
    <desc>Created with Sketch.</desc>
    <defs>
        <path d="M21.2022007,-7.52398059e-14 L6.78674984,6.95315757 C3.56055299,9.78912596 1.7235166,11.8091416 1.27564067,13.0132045 C0.603826772,14.8192987 -0.0732888556,16.2276691 2.81912945,27.7744058 C3.76977722,33.392152 5.94476692,39.2348449 7.55260779,42.9680734 C8.29303977,44.873196 9.06110516,47.2063448 9.85680393,49.9675195 C11.711519,56.1070006 12.6388765,59.7280573 12.6388765,60.8306899 C12.6388765,62.4846386 12.6388765,63.5361251 12.6388765,66.1642113 C12.6388765,68.7922975 5.25560981,88.6557598 9.85680393,91.533582 C18.2202878,94.0080648 15.6803346,93.9989203 28.2731818,91.533582 C41.4465393,86.6910636 52.7090631,85.943038 55.4714236,85.943038 C58.2337841,85.943038 65.0557656,87.7260894 65.0557656,79.5547227 C65.0557656,71.3833559 60.6969666,59.5861169 59.5536186,51.8314493 C58.7913865,46.6616709 59.6516783,41.2583806 62.1344937,35.6215785 L61.1449867,8.89131995 C60.5678214,6.1115408 58.772518,4.10755963 55.7590766,2.87937642 C51.2389145,1.03710162 50.8402307,1.23306632 48.6772044,0.847811495 C46.5141781,0.462556672 44.2000118,1.62815298e-15 43.5305863,-7.52398059e-14 C43.0843027,-1.26502515e-13 35.6415075,-1.26502515e-13 21.2022007,-7.52398059e-14 Z" id="path-1"></path>
        <linearGradient x1="50%" y1="0%" x2="50%" y2="100%" id="linearGradient-3">
            <stop stop-color="#FFFFFF" offset="0%"></stop>
            <stop stop-color="#5B86E5" offset="100%"></stop>
        </linearGradient>
    </defs>
    <g id="Page-1" stroke="none" stroke-width="1" fill="none" fill-rule="evenodd">
        <g id="待开发插画" transform="translate(-45.000000, -96.000000)">
            <g id="ill" transform="translate(45.000000, 96.000000)">
                <g id="Group-20">
                    <path d="M178.809776,161.248105 C171.857172,202.784326 167.430701,225.424673 165.530363,229.169146 C162.679855,234.785855 90.2298308,260.795834 85.4628239,262.602545 C83.1959866,263.461684 80.8883282,264.407979 78.8318783,264.911246 C76.7754285,265.414513 72.0636323,255.248244 75.3471021,254.223741 C78.6305719,253.199238 113.427883,233.186221 121.169452,229.169146 C128.91102,225.15207 141.128489,220.502144 142.622714,219.174284 C143.618863,218.289043 145.994426,195.363998 149.749402,150.399148 L178.809776,153.867587 L178.809776,161.248105 Z" id="Path-72" fill="#78ACF2"></path>
                    <path d="M151.02931,152.055426 C155.429856,153.013076 157.700297,154.493568 157.840635,156.496903 C155.719122,163.103931 148.255109,164.056939 145.784939,168.029028 C143.965747,170.95433 141.478453,171.839765 138.473827,175.592899 C137.398656,176.935915 139.774801,187.127837 138.685841,188.394034 C139.537345,190.400051 143.063759,209.935947 149.265085,247.001722 L132.68201,341.271868 C124.00176,347.533562 120.656515,349.586016 122.646277,347.42923 C125.63092,344.194052 121.258193,297.143448 121.638496,286.421461 C122.018799,275.699475 124.635363,260.44526 126.421792,254.23149 C127.372504,250.92461 119.757168,206.113005 115.320937,199.59536 C110.884705,193.077714 106.234757,187.268972 104.847581,182.999683 C103.922797,180.15349 103.969969,177.34978 104.989096,174.588553 L132.585828,161.721643 L151.02931,152.055426 Z" id="Path-73" fill="#87B6F6" transform="translate(131.014145, 250.156749) rotate(12.000000) translate(-131.014145, -250.156749) "></path>
                    <g id="Group-19" transform="translate(105.686709, 87.104430)">
                        <g id="Path-85" transform="translate(4.645570, 0.000000)">
                            <mask id="mask-2" fill="white">
                                <use xlink:href="#path-1"></use>
                            </mask>
                            <use id="Mask" fill="#EAF0F7" xlink:href="#path-1"></use>
                            <path d="M-10.2337026,51.3473118 C50.5139007,41.4623968 83.9097615,31.2949811 89.9538797,20.8450649 C99.0200571,5.17019051 107.047952,-33.7020945 107.047952,-33.7020945 C107.047952,-33.7020945 93.036501,-30.2722314 65.0135986,-23.4125053 L-1.98702239,-16.4237124 L-3.6935468,-16.4237124 L-24.3892405,11.1215242 L-10.2337026,51.3473118 Z" fill="#EAF0F7" mask="url(#mask-2)"></path>
                        </g>
                        <g id="电脑" transform="translate(53.424051, 42.971519)">
                            <path d="M1.62363239,27.8295108 C-0.240192488,29.1516406 -0.499354636,30.4803076 0.846145942,31.8155116 C2.19164652,33.1507157 11.9586633,38.907572 30.1471961,49.0860806 C32.5341319,50.224471 34.6865226,50.224471 36.6043681,49.0860806 C38.5222135,47.9476902 54.1935458,38.6902132 83.6183647,21.3136497 C83.6500477,20.4124629 83.2830722,19.8271583 82.5174384,19.5577362 C81.7518046,19.288314 72.1180159,13.1344451 53.6160723,1.09612969 C51.6372294,-0.365376563 49.5957291,-0.365376563 47.4915716,1.09612969 C45.3874141,2.55763594 30.098101,11.468763 1.62363239,27.8295108 Z" id="Path-71" fill="#C8E7FF"></path>
                            <path d="M18.5484086,27.5456846 C17.2540857,28.4681008 17.074112,29.3950777 18.0084874,30.3266154 C18.9428628,31.2581531 25.7255133,35.2745645 38.356439,42.3758496 C40.0140333,43.1700755 41.508749,43.1700755 42.8405861,42.3758496 C44.1724233,41.5816237 55.0552928,35.1229188 75.4891949,22.999735 C75.5111969,22.371 75.2563529,21.962648 74.7246628,21.774679 C74.1929726,21.5867101 67.5028416,17.2933132 54.6542696,8.89448848 C53.2800731,7.87483295 51.8623646,7.87483295 50.4011441,8.89448848 C48.9399236,9.91414401 38.3223451,16.1312094 18.5484086,27.5456846 Z" id="Path-71" fill="#2F367D"></path>
                        </g>
                        <path d="M17.2543235,31.0428044 C18.9472069,34.3816905 18.0504023,36.2406245 18.9428395,38.5655029 C19.5059244,40.0323891 21.2067019,42.7907383 24.0451721,46.8405504 C25.7213581,49.0055913 26.810853,50.7430361 27.3136568,52.0528848 C29.4035043,54.8977573 30.9157898,56.6576125 32.3190424,57.7357173 C34.6736989,59.0376054 47.6478283,60.1868804 51.1337072,60.7171928 C54.6195861,61.2475053 56.8417929,61.476757 58.2860156,61.476757 C59.2488308,61.476757 60.709105,61.5559014 62.6668384,61.71419 C63.6190998,61.815068 64.4861967,61.8883673 65.2681293,61.9340879 C66.4410281,62.0026688 65.3651892,62.0176229 67.8562707,62.0176229 C68.9424953,62.0176229 72.046524,59.8090865 74.0781334,61.020767 C74.5659832,61.3117275 73.9465099,61.7125182 73.4577771,62.4280451 C73.407607,62.5014963 73.4380859,62.6289169 73.450803,62.6850042 C73.4643777,62.7448739 73.4423415,62.876308 73.5308292,62.8934796 C74.3327824,63.0491033 77.5620839,63.2555509 79.1817212,62.8668751 C80.77671,62.4841142 81.5998772,63.1957372 81.9708114,63.3324452 C82.7599737,63.6232912 83.7219933,67.2032347 81.2405167,68.6159239 C78.1754067,70.3608718 77.1405228,69.9886828 75.2327391,70.2291704 C71.6583742,70.6797407 68.4277638,70.4831153 65.540908,69.6392942 C64.3221962,69.6587699 62.1696296,69.6779152 59.0832081,69.69673 C54.4535759,69.7249522 53.7003638,69.8234725 51.6802943,69.7237884 C50.3335813,69.6573323 42.0161944,69.3866434 26.7281336,68.9117218 L11.9163464,53.158984 L9.6471695,49.9020069 C7.19448147,45.2151958 5.51815292,41.6995405 4.61818387,39.355041 C3.26823029,35.8382917 2.66699217,33.3152815 3.54750318,30.21869 C4.4280142,27.1220986 8.0431858,22.5207827 9.48151075,23.1142442 C10.9198357,23.7077056 15.5614401,27.7039182 17.2543235,31.0428044 Z" id="Path-79" fill="#FBAFA8" transform="translate(42.983514, 46.763252) rotate(8.000000) translate(-42.983514, -46.763252) "></path>
                        <path d="M67.2465131,17.0157398 C68.9393965,20.354626 69.4337148,23.5728021 70.3261519,25.8976804 C71.1707793,28.0980098 73.8070507,34.5180346 75.9390302,37.3554281 C78.0288778,40.2003007 78.8071937,42.0357309 80.2104463,43.1138357 C82.5651028,44.4157239 86.0502641,45.6346882 89.4500283,46.6786962 C91.7165378,47.3747016 95.6617385,48.2712917 101.28563,49.3684666 L104.1597,49.3684666 C105.420269,48.8497656 106.842265,48.407869 108.425689,48.0427769 C109.416734,47.8142705 113.056064,47.0647393 115.564155,48.331927 C116.688817,48.9001516 116.52998,50.6595649 115.564155,51.8612934 C114.598329,53.0630218 108.425689,52.5638566 108.425689,53.4944067 C108.425689,54.3106528 111.149261,53.6657064 110.819449,54.7965522 C110.489638,55.927398 106.715498,55.2384481 105.493798,55.2384481 C104.272097,55.2384481 102.949975,55.2384481 102.202174,55.2384481 C99.9165538,55.2384481 99.5715198,55.2384481 98.7604504,55.2384481 C97.9493809,55.2384481 92.2306554,55.2384481 87.6248655,54.7965522 C84.5543389,54.5019549 80.2908441,53.5235353 74.8343811,51.8612934 C68.245311,45.45013 64.415239,41.6457632 63.3441651,40.4481929 C62.2730913,39.2506227 61.4196623,38.2197011 60.7838783,37.3554281 C58.3311903,32.668617 56.6548618,29.1529617 55.7548927,26.8084622 C54.4049391,23.2917129 50.9927639,14.6386285 53.4764732,11.6262003 C55.5169417,8.78081122 60.9129797,11.8566724 62.3153376,12.5200636 C63.7176954,13.1834549 65.5536298,13.6768537 67.2465131,17.0157398 Z" id="Path-79" fill="#FBAFA8" transform="translate(84.471914, 32.942477) rotate(7.000000) translate(-84.471914, -32.942477) "></path>
                    </g>
                    <path d="M201.362926,148.344999 C201.722379,146.653227 202.675398,145.486775 204.221983,144.845645 C205.768569,144.204514 221.12192,135.537697 250.282036,118.845194 C251.442113,118.138642 252.022152,118.409236 252.022152,119.656977 C251.653313,120.923092 248.557105,131.742555 242.73353,152.115365 L192.791139,180.015823 L201.362926,148.344999 Z" id="Path-74" fill="#ABCCF4"></path>
                    <path d="M225.018636,141.357737 C230.726959,139.973624 228.823063,153.663478 223.932026,154.670783 C219.040988,155.678087 219.310314,142.74185 225.018636,141.357737 Z" id="Path-68" fill="#FFFFFF"></path>
                    <path d="M209.050633,0.921308402 C241.426462,44.452487 206.840266,88.8524781 179.942749,108.962301 M111.724506,124.269435 C61.0912474,133.462293 8.07595419,186.015681 127.344038,162.167598 C189.753757,149.68855 239.122492,172.374871 241.426462,196.275316 C244.165747,224.691556 208.925737,250.568015 142.27057,269.944111 M116.44679,275.830696 C94.8821578,282.325481 68.4418361,283.030133 48.1050909,301.247742 C35.5395221,312.50395 21.2982546,334.051033 40.7770242,343.229307" id="Path-86" stroke="#B5D3FB" stroke-linecap="round" stroke-linejoin="round"></path>
                    <path d="M135.914584,76.6518987 C135.625317,82.3459483 134.688641,85.581486 133.104556,86.3585117 C131.520471,87.1355374 129.780963,87.9676757 127.886034,88.8549267 C134.09997,95.8027425 139.20665,99.0771714 143.206072,98.6782135 C147.205494,98.2792555 149.914551,94.4236992 151.333244,87.1115445 L147.773003,87.0192598 L147.773003,85.2800551 C140.803143,81.5754664 137.318213,79.3275282 137.318213,78.5362406 C137.318213,77.7449529 136.850337,77.116839 135.914584,76.6518987 Z" id="Path-69" fill="#FBAFA8"></path>
                    <g id="头部" transform="translate(125.430380, 32.518987)">
                        <path d="M7.71550348,40.0640951 C12.1855817,48.106187 17.0314987,52.2907887 22.2532545,52.6179001 C27.4750104,52.9450115 30.7959797,52.1782142 32.2161627,50.3175084 C33.0429492,46.1435883 33.6417091,43.8159502 34.0124426,43.334594 C34.3831761,42.8532379 35.0402547,39.6323678 35.9836783,33.6719839 C35.4717614,29.6475654 35.3437822,27.3025352 35.5997406,26.6368934 C35.9836783,25.6384307 36.4191632,24.2673562 35.2158029,23.2459676 C35.4872509,21.9534209 35.3298162,14.593942 32.2161627,13.1946712 C30.1403937,12.2618241 21.8453588,12.8853033 7.33105792,15.0651088 L1.9104772,23.7563984 C2.06808126,25.9277714 2.50982968,27.9680013 3.23572247,29.8770879 C1.85283576,29.9127504 1.16139241,30.6443591 1.16139241,32.0719139 C1.48438761,34.4706136 2.52616565,36.3478147 4.28672653,37.7035175 C5.29887975,38.6964463 6.10611384,39.7794977 6.71858588,39.7794977 C7.12690058,39.7794977 7.45920644,39.8743635 7.71550348,40.0640951 Z" id="Path-77" fill="#F9BCB7"></path>
                        <path d="M1.88416183,25.5506329 C-1.02497119,18.624516 -0.565343047,13.5965931 3.26304624,10.4668642 C3.48654626,8.50725368 5.19575056,6.62577812 8.39065915,4.82243751 C9.48757372,3.11472991 11.5429263,1.86942178 14.5567168,1.08651312 C19.0774026,-0.0878498683 24.7182698,-0.552501566 27.3688728,0.938385901 C30.0194758,2.42927337 35.3785462,4.66469501 32.5193201,11.0973144 C33.8620501,11.4497013 35.4104624,12.7578985 37.164557,15.0219061 L35.2651025,22.486524 C35.0521882,16.4255783 33.9487169,13.3951054 31.9546884,13.3951054 C28.9636458,13.3951054 14.2873751,16.1565086 13.442244,16.1565086 C12.5971129,16.1565086 8.39065915,16.5496954 6.50033679,18.2412043 C4.50725979,20.2822415 2.6818078,24.2395771 2.6818078,24.5997601 C2.6818078,24.8398821 2.41592581,25.1568397 1.88416183,25.5506329 Z" id="Path-76" fill="#473A48"></path>
                        <path d="M14.5109984,25.215328 C12.5947188,26.5446612 11.6365789,27.7765962 11.6365789,28.9111332 C11.6365789,30.6129386 11.2828702,35.8700405 11.6365789,37.0670258 C11.8723848,37.865016 11.7544819,38.671788 11.2828702,39.4873418 C9.7385207,34.5438121 8.49008964,31.6722538 7.53757702,30.8726669 C6.51039256,30.2914717 5.07506925,29.9312249 3.23160708,29.7919263 C2.52177532,28.1781015 2.16685944,26.7602777 2.16685944,25.538455 C2.95375084,23.4371869 5.93006112,18.1118718 7.24065319,17.7873382 C9.37424851,16.4628691 12.9263556,16.1175199 13.4140449,16.1175199 C13.9017342,16.1175199 12.1593712,20.0332705 12.5441634,20.3446251 C12.9289556,20.6559796 15.0981013,20.1359909 15.0981013,20.6559796 C15.0981013,21.1759684 14.5109984,23.051813 14.5109984,24.1011045 C14.4759848,24.5770955 14.4759848,24.9485034 14.5109984,25.215328 Z" id="Path-78" fill="#625163" opacity="0.584352355"></path>
                    </g>
                    <path d="M73.5339443,252.266538 L74.2504185,252.266538 C74.5013359,252.266538 75.9015593,252.085002 78.4510887,251.721931 C80.0742489,252.691763 80.5333223,253.350299 79.828309,253.697541 C78.770789,254.218402 79.2119031,254.481978 79.1562329,255.591434 C79.1191195,256.331071 80.5994726,257.420147 83.5972923,258.858662 C83.5500255,258.536579 83.8990053,258.355804 84.6442318,258.316336 C85.7620716,258.257133 90.6760669,262.379254 89.686444,263.268722 C90.0465248,263.707723 88.9995559,265.371301 88.3321075,266.351577 C88.6012846,266.679751 88.2124996,267.338952 87.1657526,268.329179 C86.5486233,268.822558 86.2886061,269.239699 86.385701,269.580603 C86.4827959,269.921506 85.7715323,272.21763 84.2519101,276.468974 L83.9371743,279.766026 C84.7685558,281.014761 85.1621048,282.093786 85.1178214,283.003103 C85.0317078,284.771363 84.8048004,285.83352 84.7810015,286.042954 C84.7990269,286.521978 83.1471668,288.830834 80.9895813,287.874288 C78.8319958,286.917741 79.0617733,286.345872 76.2033027,280.888489 C74.2976556,277.250234 73.1569567,272.195539 72.781206,265.724403 L71.730334,262.00275 C70.6803595,258.590322 69.9505106,256.152394 69.5407873,254.688965 C69.1310641,253.225536 69.6048947,252.359904 70.9622792,252.092069 C71.517663,252.133805 72.0005938,252.191961 72.4110719,252.266538 C72.8215499,252.341115 73.1958407,252.341115 73.5339443,252.266538 Z" id="Path-70" fill="#6397DE" transform="translate(79.607775, 269.912996) rotate(-15.000000) translate(-79.607775, -269.912996) "></path>
                    <path d="M100.377747,342.949474 C99.8473796,345.319758 99.740641,346.613149 100.057531,346.829646 C100.374421,347.046143 101.429079,348.19933 103.221505,350.289206 L107.707429,356.574413 C109.284822,359.871268 111.494264,362.2309 114.335756,363.65331 C118.597993,365.786925 122.532089,366.97726 125.997441,365.786925 C128.307676,364.993368 129.708183,363.88685 130.198964,362.467369 C130.548208,360.670683 130.447549,359.508242 129.896986,358.980048 C129.508929,357.781524 126.678626,353.94388 125.863374,353.758275 C125.190757,352.397909 122.065929,348.515025 121.705512,348.283623 C121.265372,347.590966 120.766423,346.742292 120.208665,345.737602 L120.383982,345.518306 L120.208665,344.524611 L119.65881,344.691756 L118.797258,343.288822 C119.26423,342.937248 119.497716,342.761461 119.497716,342.761461 C119.497716,342.761461 119.389312,342.6195 119.172503,342.335577 L119.172503,342.006834 L118.98246,341.778963 L118.109509,342.208579 C117.896265,341.471268 117.789643,341.102613 117.789643,341.102613 C117.789643,341.102613 117.789643,341.006482 117.789643,340.814219 L118.109509,340.337798 L117.437194,339.644602 L117.055291,339.644602 L117.055291,340.03397 L116.019533,338.21766 C115.593582,338.192173 115.380606,338.273376 115.380606,338.461267 C115.201759,338.174487 114.716274,337.866221 114.526015,338.041941 C114.335756,338.21766 107.902325,339.849474 107.385858,340.814219 C107.041546,341.457382 106.776689,342.016619 106.591285,342.49193 C105.359162,343.257888 104.685939,343.582193 104.571617,343.464845 C104.400133,343.288822 104.447891,342.973898 104.047225,341.102613 C103.64656,339.231328 103.66313,339.13804 104.716277,337.390222 C105.418376,336.225011 105.489625,335.642405 104.930026,335.642405 C104.368099,336.152954 104.0522,336.599517 103.982329,336.982092 C103.877523,337.555956 101.40588,339.627252 101.40588,339.830611 C101.40588,340.03397 100.377747,341.157084 100.377747,341.410879 C100.377747,341.580076 100.377747,342.092941 100.377747,342.949474 Z" id="Path-75" fill="#6397DE"></path>
                    <circle id="Oval-32" fill="#434343" cx="146.335443" cy="62.7151899" r="1.16139241"></circle>
                    <circle id="Oval-32" fill="#434343" cx="156.787975" cy="60.3924051" r="1.16139241"></circle>
                    <rect id="Rectangle-92" fill="#292631" transform="translate(145.351522, 61.200806) rotate(-14.000000) translate(-145.351522, -61.200806) " x="141.867345" y="60.0394131" width="6.96835443" height="2.32278481" rx="1.16139241"></rect>
                    <rect id="Rectangle-92" fill="#292631" transform="translate(155.626582, 58.878021) rotate(-14.000000) translate(-155.626582, -58.878021) " x="152.142405" y="57.7166283" width="6.96835443" height="2.32278481" rx="1.16139241"></rect>
                    <path d="M150.128799,77.6319592 C152.089298,77.273801 153.446496,76.9283485 154.200395,76.5956018 C155.662866,75.9501147 156.746766,75.0476191 157.452096,73.8881151" id="Path-81" stroke="#E03F59" stroke-width="0.2" stroke-linecap="round" stroke-linejoin="round" transform="translate(153.790447, 75.760037) rotate(12.000000) translate(-153.790447, -75.760037) "></path>
                    <path d="M152.26877,78.9250502 C152.95204,78.8002256 153.425048,78.6798292 153.687796,78.5638609 C154.197493,78.338897 154.575252,78.0243609 154.821072,77.6202527" id="Path-81" stroke="#EC7286" stroke-width="0.2" stroke-linecap="round" stroke-linejoin="round" transform="translate(153.544921, 78.272651) rotate(20.000000) translate(-153.544921, -78.272651) "></path>
                    <path d="M153.350844,61.1258462 C153.350844,61.1258462 153.350844,61.1258462 153.350844,61.1258462 C153.894012,61.1258462 154.328653,61.4095011 154.654765,61.976811 L156.23591,69.0879432 C156.53559,70.4357404 155.685923,71.7712844 154.338126,72.0709642 C154.129251,72.1174071 153.915278,72.1368418 153.701454,72.1287917 L152.246269,72.0740068 C150.866534,72.0220625 149.790148,70.8614576 149.842092,69.4817232 C149.849488,69.2852843 149.880026,69.0904032 149.933076,68.9011185 L151.777894,62.3185661 C151.975544,61.6133298 152.618434,61.1258462 153.350844,61.1258462 Z" id="Rectangle-93" fill="#F89E95" transform="translate(153.077843, 66.618510) rotate(-18.000000) translate(-153.077843, -66.618510) "></path>
                    <g id="Group-18" transform="translate(124.268987, 55.585443)">
                        <path d="M12.7753165,6.10559635 L26.7552004,2.48417722 C26.726417,9.86247724 24.3892405,13.9257225 19.7436709,14.673913 C15.780308,15.442357 14.7010336,14.1880922 14.2616635,12.5663509 C13.96875,11.4851901 13.6477431,9.96617277 13.2986427,8.009299 L12.7753165,6.10559635 Z" id="Path-82" fill="url(#linearGradient-3)" opacity="0.402683424"></path>
                        <path d="M27.8734177,2.74168644 L39.3617656,0.161392405 C39.7246228,5.67829977 37.9836589,8.74283138 34.1388741,9.35498724 C30.8586999,9.98371419 29.9654665,8.9574975 29.6018332,7.63061828 C29.359411,6.74603213 28.9408682,5.64197149 28.3462049,4.31843635 L27.8734177,2.74168644 Z" id="Path-82" fill="url(#linearGradient-3)" opacity="0.402683424"></path>
                        <path d="M12.7753165,6.45930321 L26.7552004,2.83788408 C26.726417,10.2161841 24.3892405,14.2794294 19.7436709,15.0276199 C15.780308,15.7960639 14.7010336,14.5417991 14.2616635,12.9200578 C13.96875,11.838897 13.6477431,10.3198796 13.2986427,8.36300587 L12.7753165,6.45930321 Z" id="Path-82" stroke="#565656"></path>
                        <path d="M27.4547081,2.64951592 L38.9430561,0.0692218785 C39.3059132,5.58612925 37.5649493,8.65066086 33.7201645,9.26281671 C30.4399903,9.89154366 29.5467569,8.86532697 29.1831236,7.53844775 C28.9407015,6.65386161 28.5221587,5.54980096 27.9274953,4.22626582 L27.4547081,2.64951592 Z" id="Path-82" stroke="#565656"></path>
                        <path d="M12.4811551,6.63467089 L2.70969134,6.38795499 C2.31569445,6.38116053 2.118696,6.46339916 2.118696,6.63467089 C2.118696,6.80594262 1.73812311,7.98307782 0.976977312,10.1660765" id="Path-83" stroke="#565656"></path>
                    </g>
                    <path d="M113.246964,121.32257 C117.333601,118.509325 121.426142,117.661066 125.524585,118.777793 C126.277682,119.067152 126.65423,119.311877 126.65423,119.511966 C126.65423,109.052726 126.65423,103.412244 126.65423,102.590521 C126.65423,101.357936 124.491962,93.4986075 121.283352,92.9992289 C118.074742,92.4998503 112.327287,95.9223532 110.360472,101.467962 C109.049262,105.165035 108.582117,109.52681 108.959037,114.553286 C110.580621,121.08487 111.460513,124.042608 111.598712,123.4265 C111.736911,122.810392 112.286328,122.109082 113.246964,121.32257 Z" id="Path-84" fill="#EAF0F7"></path>
                    <path d="M161.1282,115.310794 C165.710054,113.116603 170.050204,112.577871 174.148648,113.694599 C175.683152,114.184047 176.0597,114.428772 175.278292,114.428772 C175.278292,103.969531 175.278292,98.3290497 175.278292,97.5073263 C175.278292,96.2747413 175.426219,87.0388847 172.217609,86.5395061 C169.009,86.0401276 162.699744,88.9814274 160.732929,94.5270366 C159.421719,98.2241094 158.568239,103.326649 158.17249,109.834657 C158.339632,114.035713 158.610214,116.136241 158.984236,116.136241 C159.358258,116.136241 160.072913,115.861092 161.1282,115.310794 Z" id="Path-84" fill="#EAF0F7" transform="translate(166.923131, 101.310532) scale(-1, 1) rotate(22.000000) translate(-166.923131, -101.310532) "></path>
                    <path d="M159.534354,270.01916 C182.886707,261.006052 201.327787,252.297133 214.857595,243.892405" id="Path-87" stroke="#B5D3FB" stroke-linecap="round" stroke-linejoin="round"></path>
                    <path d="M49.5379647,157.900325 C46.3322047,170.159874 61.0854686,174.84804 93.7977565,171.964823" id="Path-88" stroke="#B5D3FB" stroke-linecap="round" stroke-linejoin="round"></path>
                    <path d="M227.943212,98.2427839 C228.344991,96.3675085 229.410229,95.0745344 231.138926,94.3638615 C232.867623,93.6531886 250.028846,84.0462981 282.622595,65.5431901 C283.919273,64.7599995 284.567611,65.0599448 284.567611,66.443026 C284.168761,67.8007889 280.916632,79.0699323 274.811225,100.250456 C274.605795,100.963121 274.453075,101.703419 273.566355,102.572896 C272.975208,103.152548 255.297457,113.010287 220.533102,132.146113 C219.413939,132.539356 218.691071,132.193161 218.364499,131.10753 C218.037927,130.021899 221.230832,119.066984 227.943212,98.2427839 Z" id="Path-74" fill="#ABCCF4" opacity="0.338428442"></path>
                    <path d="M253.381855,172.586632 C253.525688,171.9153 253.907034,171.452427 254.525892,171.198012 C255.14475,170.943598 261.288314,167.504417 272.956585,160.88047 C273.420784,160.600094 273.652883,160.707472 273.652883,161.202603 C273.510098,161.68867 272.345865,165.722922 270.160184,173.30536 C270.086642,173.560488 270.03197,173.825508 269.714532,174.136773 C269.502906,174.344283 263.17443,177.873265 250.729102,184.72372 C250.328451,184.864497 250.069671,184.740563 249.952761,184.351917 C249.835852,183.96327 250.978883,180.041509 253.381855,172.586632 Z" id="Path-74" fill="#FF877F" opacity="0.473958333" transform="translate(261.798754, 172.754145) rotate(38.000000) translate(-261.798754, -172.754145) "></path>
                    <path d="M23.3585579,197.658626 C23.566767,196.686824 24.118793,196.016781 25.0146358,195.648497 C25.9104786,195.280213 34.8037417,190.301745 51.6944249,180.713092 C52.366387,180.307228 52.702368,180.462665 52.702368,181.179404 C52.4956764,181.883021 50.8103632,187.7229 47.6464284,198.699039 C47.5399709,199.068355 47.4608286,199.451991 47.0013137,199.90257 C46.6949704,200.202956 37.5340332,205.311419 19.5185019,215.227958 C18.9385306,215.431744 18.5639272,215.252339 18.3946916,214.689745 C18.2254559,214.127151 19.8800781,208.450111 23.3585579,197.658626 Z" id="Path-74" fill="#9F98ED" opacity="0.473958333" transform="translate(35.542641, 197.901114) rotate(-180.000000) translate(-35.542641, -197.901114) "></path>
                    <circle id="Oval-33" stroke="#CAC7EF" cx="143.431962" cy="285.121835" r="4.06487342"></circle>
                    <circle id="Oval-33" stroke="#F3D2D0" cx="2.32278481" cy="314.737342" r="2.32278481"></circle>
                    <circle id="Oval-33" stroke="#F9E59F" cx="196.856013" cy="35.4224684" r="1.74208861"></circle>
                    <g id="phone" transform="translate(209.050633, 213.696203)">
                        <path d="M10.85936,21.2357174 C13.186147,22.5005856 15.1522366,22.3210535 16.7576288,20.6971211 C19.165717,18.2612225 32.0274376,6.38353418 32.2441837,6.12919102 C32.4609297,5.87484786 32.6876356,5.1547812 32.3374803,4.56541592 C31.987325,3.97605064 31.6521909,4.49053316 31.0974359,4.32680199 C29.9411516,3.98553459 26.7930899,2.98265711 21.6532507,1.31816957 C20.431388,1.00958359 19.3715091,1.15654214 18.4736142,1.75904521 C17.5757192,2.36154828 11.6600783,6.33843528 0.726691648,13.6897062 C-0.149287805,14.6175135 -0.233315124,15.3442167 0.474609691,15.869816 C1.18253451,16.3954153 4.64411794,18.1840491 10.85936,21.2357174 Z" id="Path-89" fill="#EBEBEB"></path>
                        <path d="M10.8844653,20.074325 C13.2166315,21.3391932 15.1872664,21.1596611 16.79637,19.5357287 C19.2100254,17.0998301 32.3185845,5.14381833 32.4122399,4.97793427 C32.5058953,4.8120502 32.907765,3.67731069 31.1693287,3.16540959 C30.0103712,2.82414218 26.8550316,1.82126471 21.7033099,0.156777168 C20.4786224,-0.151808813 19.4162933,-0.00485026742 18.5163225,0.597652804 C17.6163517,1.20015588 11.6870348,5.17704287 0.728371654,12.5283138 C-0.149632937,13.4561211 -0.233854515,14.1828243 0.475706921,14.7084236 C1.18526836,15.2340229 4.65485447,17.0226567 10.8844653,20.074325 Z" id="Path-89" fill="#DEECFF"></path>
                        <ellipse id="Oval-34" fill="#FFFFFF" transform="translate(8.129747, 15.678797) rotate(-64.000000) translate(-8.129747, -15.678797) " cx="8.12974684" cy="15.6787975" rx="1.16139241" ry="1.74208861"></ellipse>
                        <polygon id="Path-90" fill="#FFFFFF" opacity="0.566009964" points="2.32278481 13.176262 13.9782086 18.5822785 30.1962025 4.51716118 19.9805987 1.16139241"></polygon>
                    </g>
                    <path d="M53.4240506,106.996991 L59.2310127,105.761016 C61.7966899,105.214928 63.8765823,107.737512 63.8765823,111.395366 L63.8765823,119.674277 C63.8765823,123.33213 61.7966899,125.854714 59.2310127,125.308626 L53.4240506,124.072652 C50.8583734,123.526564 48.778481,121.003979 48.778481,118.438302 L48.778481,112.63134 C48.778481,110.065663 50.8583734,107.543079 53.4240506,106.996991 Z" id="Rectangle-108" fill="#FFD84F" opacity="0.3"></path>
                    <path d="M51.1012658,108.158383 L56.9082278,106.922409 C59.4739051,106.376321 61.5537975,108.898905 61.5537975,112.556758 L61.5537975,120.835669 C61.5537975,124.493522 59.4739051,127.016107 56.9082278,126.470019 L51.1012658,125.234044 C48.5355886,124.687956 46.4556962,122.165372 46.4556962,119.599695 L46.4556962,113.792733 C46.4556962,111.227055 48.5355886,108.704471 51.1012658,108.158383 Z" id="Rectangle-108" fill="#FFD84F" opacity="0.3"></path>
                </g>
            </g>
        </g>
    </g>
</svg>