<?xml version="1.0" encoding="UTF-8"?>
<svg width="27px" height="27px" viewBox="0 0 27 27" version="1.1" xmlns="http://www.w3.org/2000/svg" xmlns:xlink="http://www.w3.org/1999/xlink">
    <!-- Generator: Sketch 49.1 (51147) - http://www.bohemiancoding.com/sketch -->
    <title>ico_add</title>
    <desc>Created with Sketch.</desc>
    <defs>
        <linearGradient x1="50%" y1="0%" x2="50%" y2="100%" id="linearGradient-1">
            <stop stop-color="#FFFFFF" offset="0%"></stop>
            <stop stop-color="#5B86E5" offset="100%"></stop>
        </linearGradient>
        <rect id="path-2" x="9" y="15" width="9" height="1"></rect>
        <rect id="path-3" x="9" y="15" width="9" height="1"></rect>
    </defs>
    <g id="Page-1" stroke="none" stroke-width="1" fill="none" fill-rule="evenodd">
        <g id="档案管理nor" transform="translate(-86.000000, -622.000000)">
            <g id="ico_add" transform="translate(86.000000, 622.000000)">
                <path d="M21,7.75 L12.9576054,7.75 L12.0204709,6.21746803 C11.7479408,5.77178913 11.2631669,5.5 10.7407663,5.5 L6,5.5 C5.17157288,5.5 4.5,6.17157288 4.5,7 L4.5,20.25 C4.5,21.0784271 5.17157288,21.75 6,21.75 L21,21.75 C21.8284271,21.75 22.5,21.0784271 22.5,20.25 L22.5,9.25 C22.5,8.42157288 21.8284271,7.75 21,7.75 Z" id="Combined-Shape" stroke="#333333"></path>
                <g id="Rectangle-3">
                    <use fill="url(#linearGradient-1)" fill-rule="evenodd" xlink:href="#path-2"></use>
                    <rect stroke="#333333" stroke-width="1" x="9.5" y="15.5" width="8" height="1"></rect>
                </g>
                <g id="Rectangle-3" transform="translate(13.500000, 15.375000) rotate(-270.000000) translate(-13.500000, -15.375000) ">
                    <use fill="url(#linearGradient-1)" fill-rule="evenodd" xlink:href="#path-3"></use>
                    <rect stroke="#333333" stroke-width="1" x="9.5" y="15.5" width="8" height="1"></rect>
                </g>
            </g>
        </g>
    </g>
</svg>