<?xml version="1.0" encoding="UTF-8"?>
<svg width="48px" height="66px" viewBox="0 0 48 66" version="1.1" xmlns="http://www.w3.org/2000/svg" xmlns:xlink="http://www.w3.org/1999/xlink">
    <!-- Generator: Sketch 49.1 (51147) - http://www.bohemiancoding.com/sketch -->
    <title>ico_pay</title>
    <desc>Created with Sketch.</desc>
    <defs></defs>
    <g id="Page-1" stroke="none" stroke-width="1" fill="none" fill-rule="evenodd">
        <g id="付款成功" transform="translate(-164.000000, -103.000000)">
            <rect id="bg" fill="#F2F2F2" x="0" y="0" width="375" height="667"></rect>
            <g id="reader" transform="translate(164.000000, 103.000000)" fill-rule="nonzero">
                <path d="M7.81730804,14.2449357 C6.43920089,14.2449357 5.32221652,15.6149825 5.32221652,17.3047368 L5.32221652,37.3831462 L10.3125045,37.3831462 L10.3125045,17.3047368 C10.3123996,15.6147251 9.19520536,14.2449357 7.81730804,14.2449357 Z" id="Shape" fill="#FFD0B1"></path>
                <path d="M6.8838125,34.580269 L6.8838125,17.3047368 C6.8838125,15.6147251 5.7666183,14.2449357 4.38861607,14.2449357 C3.01061384,14.2449357 1.89352455,15.6149825 1.89352455,17.3047368 L1.90747768,36.5957778 C1.90789732,37.294117 2.13670759,38.3634971 2.41577009,38.9721637 L12.2995134,58.600152 C12.5785759,59.2088187 12.8068616,60.2783275 12.8068616,60.976538 L12.8068616,64.8202339 L22.7858638,64.8202339 L22.7858638,58.2330994 L18.6029687,45.6894971 L6.8838125,34.580269 Z" id="Shape" fill="#FAC29D"></path>
                <path d="M22.7859687,50.5032515 C22.7859687,48.4082339 21.7976049,45.4822339 20.5897679,44.0007719 L11.1433973,32.4164211 C10.1689866,31.2214737 8.58913616,31.2214737 7.61472545,32.4164211 C6.64031473,33.6113684 6.64031473,35.5487836 7.61472545,36.743731 L15.2399509,46.0947602 L15.2399509,48.8428304 C15.2399509,54.0289123 18.5571228,58.2329708 22.7859687,58.2329708 L22.7859687,50.5032515 L22.7859687,50.5032515 Z" id="Shape" fill="#FFD0B1"></path>
                <path d="M41.1830067,14.2449357 C42.5611138,14.2449357 43.6780982,15.6149825 43.6780982,17.3047368 L43.6780982,37.3831462 L38.6878103,37.3831462 L38.6878103,17.3047368 C38.6879152,15.6147251 39.8051094,14.2449357 41.1830067,14.2449357 Z" id="Shape" fill="#FFD0B1"></path>
                <path d="M42.1165022,34.580269 L42.1165022,17.3047368 C42.1165022,15.6147251 43.2336964,14.2449357 44.6116987,14.2449357 C45.9897009,14.2449357 47.1067902,15.6149825 47.1067902,17.3047368 L47.0928371,36.5957778 C47.0924174,37.294117 46.8636071,38.3634971 46.5845446,38.9721637 L36.7008013,58.600152 C36.4217388,59.2088187 36.1933482,60.2783275 36.1933482,60.976538 L36.1933482,64.8202339 L26.214346,64.8202339 L26.214346,58.2330994 L30.3972411,45.6894971 L42.1165022,34.580269 Z" id="Shape" fill="#FAC29D"></path>
                <path d="M26.214346,50.5032515 C26.214346,48.4082339 27.2027098,45.4822339 28.4106518,44.0007719 L37.8570223,32.4164211 C38.831433,31.2214737 40.4112835,31.2214737 41.3856942,32.4164211 C42.3601049,33.6113684 42.3601049,35.5487836 41.3856942,36.743731 L33.7604687,46.0947602 L33.7604687,48.8428304 C33.7604687,54.0289123 30.4432969,58.2329708 26.2144509,58.2329708 L26.2144509,50.5031228 L26.214346,50.5031228 L26.214346,50.5032515 Z" id="Shape" fill="#FFD0B1"></path>
                <path d="M28.3767656,1.05111111 C31.1108437,1.05111111 33.7000402,3.21109942 35.5859152,3.21109942 L35.5859152,25.3047602 C33.6999353,25.3047602 31.1108437,23.1447719 28.3767656,23.1447719 C25.1526496,23.1447719 24.4182746,25.5768655 24.4182746,25.5768655 L20.8024219,16.5814386 L24.3363393,4.46419883 C24.3362344,4.46419883 25.1526496,1.05111111 28.3767656,1.05111111 Z" id="Shape" fill="#7DE6DC"></path>
                <path d="M20.539096,1.05111111 C17.8587321,1.05111111 15.3204174,3.21109942 13.4715759,3.21109942 L13.4715759,25.3047602 C15.3205223,25.3047602 17.8587321,23.1447719 20.539096,23.1447719 C23.699846,23.1447719 24.4181696,25.5768655 24.4181696,25.5768655 L24.5001049,4.46419883 C24.5002098,4.46419883 23.699846,1.05111111 20.539096,1.05111111 Z" id="Shape" fill="#FFFFC3"></path>
                <path d="M11.7494665,31.6733099 C11.1163304,30.8967485 10.2745268,30.4690994 9.37911384,30.4690994 C8.79591518,30.4690994 8.2360067,30.6515322 7.74103795,30.9925965 L7.74103795,17.3048655 C7.74103795,16.609614 7.59898884,15.9543743 7.34951116,15.3795439 C7.49963839,15.3247368 7.65689955,15.2960468 7.81730804,15.2960468 C8.72048438,15.2960468 9.45527902,16.1972749 9.45527902,17.3047368 L9.45527902,27.4109708 C9.45527902,27.991462 9.83904241,28.4620819 10.3123996,28.4620819 C10.7857567,28.4620819 11.1695201,27.991462 11.1695201,27.4109708 L11.1695201,17.3047368 C11.1695201,15.0379649 9.665625,13.1938246 7.81730804,13.1938246 C7.20588839,13.1938246 6.61639509,13.3963275 6.10191295,13.7730292 C5.60022991,13.4055906 5.01440848,13.1938246 4.38872098,13.1938246 C2.54029911,13.1938246 1.03650893,15.0380936 1.03650893,17.3057661 L1.05046205,36.5966784 C1.05098661,37.4770643 1.31683036,38.7198713 1.66859598,39.4872982 C1.67447098,39.4999064 1.68034598,39.5122573 1.68653571,39.5246082 L11.5599978,59.1320117 C11.7649933,59.590538 11.949846,60.4625614 11.949846,60.9766667 L11.949846,64.8203626 C11.949846,65.4008538 12.3336094,65.8714737 12.8069665,65.8714737 C13.2803237,65.8714737 13.6640871,65.4008538 13.6640871,64.8203626 L13.6640871,60.9766667 C13.6640871,60.096152 13.3986629,58.8529591 13.0467924,58.0851462 C13.0409174,58.0726667 13.0350424,58.0601871 13.0288527,58.0478363 L3.15539063,38.4404327 C2.95029018,37.9817778 2.76501786,37.1091111 2.76459821,36.5947485 L2.75064509,17.3047368 C2.75064509,16.1971462 3.48554464,15.2960468 4.38861607,15.2960468 C5.2916875,15.2960468 6.02669196,16.1972749 6.02669196,17.3047368 L6.02669196,34.580269 C6.02669196,34.6049708 6.02826563,34.6291579 6.02962946,34.6534737 C6.04452679,35.6816842 6.37006473,36.7043626 7.00844643,37.4872281 L14.6858125,46.9021988 C15.0205826,47.3127368 15.5632857,47.3127368 15.8979509,46.9021988 C16.232721,46.4916608 16.232721,45.8261287 15.8979509,45.4155906 L8.22058482,36.0006199 C7.91120313,35.6212164 7.74082813,35.1167602 7.74082813,34.580269 C7.74082813,34.0436491 7.91120313,33.539193 8.22058482,33.1597895 C8.85928125,32.3766667 9.89842188,32.3766667 10.5371183,33.1597895 L19.9834888,44.7441404 C21.0378415,46.0373801 21.9287433,48.6745497 21.9287433,50.5032515 L21.9287433,64.8202339 C21.9287433,65.4007251 22.3125067,65.871345 22.7858638,65.871345 C23.259221,65.871345 23.6429844,65.4007251 23.6429844,64.8202339 L23.6429844,50.5032515 C23.6429844,48.1231345 22.5679643,44.9404678 21.1955223,43.2575322 L11.7494665,31.6733099 Z" id="Shape" fill="#64375A"></path>
                <path d="M44.6116987,13.1936959 C43.9861161,13.1936959 43.4002946,13.405462 42.8985067,13.7727719 C42.3841295,13.3960702 41.7945312,13.1936959 41.1831116,13.1936959 C39.3346897,13.1936959 37.8308996,15.0379649 37.8308996,17.3046082 L37.8308996,27.4108421 C37.8308996,27.9913333 38.2146629,28.4619532 38.6880201,28.4619532 C39.1613772,28.4619532 39.5451406,27.9913333 39.5451406,27.4108421 L39.5451406,17.3046082 C39.5451406,16.1970175 40.2800402,15.2959181 41.1831116,15.2959181 C41.3434152,15.2959181 41.5006763,15.3246082 41.6509085,15.3794152 C41.4014308,15.954117 41.2593817,16.6093567 41.2593817,17.3047368 L41.2593817,30.9924678 C40.7645179,30.6515322 40.2045045,30.4689708 39.6213058,30.4689708 C38.7258929,30.4689708 37.8840893,30.8966199 37.2509531,31.6731813 L27.8045826,43.2575322 C26.4322455,44.9404678 25.3571205,48.1231345 25.3571205,50.5032515 L25.3571205,64.8199766 C25.3571205,65.4004678 25.7408839,65.8710877 26.2142411,65.8710877 C26.6875982,65.8710877 27.0713616,65.4004678 27.0713616,64.8199766 L27.0713616,50.5032515 C27.0713616,48.6745497 27.9622634,46.0371228 29.0166161,44.7441404 L38.4629866,33.1597895 C39.101683,32.3766667 40.1408237,32.3766667 40.7794152,33.1597895 C41.0887969,33.539193 41.2591719,34.0436491 41.2591719,34.580269 C41.2591719,35.1167602 41.0887969,35.6212164 40.7794152,36.0006199 L33.1020491,45.4155906 C32.767279,45.8261287 32.767279,46.4916608 33.1020491,46.9021988 C33.4368192,47.3127368 33.9795223,47.3127368 34.3141875,46.9021988 L41.9915536,37.4872281 C42.6299353,36.7043626 42.9555781,35.6818129 42.9703705,34.6534737 C42.9717344,34.6292865 42.973308,34.6049708 42.973308,34.580269 L42.973308,17.3047368 C42.973308,16.1971462 43.7082076,15.2960468 44.611279,15.2960468 C45.5143504,15.2960468 46.2493549,16.1972749 46.2493549,17.3038363 L46.2354018,36.5948772 C46.2350871,37.1092398 46.0498147,37.9816491 45.8446094,38.4405614 L35.9710424,58.0479649 C35.9648527,58.0603158 35.9589777,58.0726667 35.9531027,58.0852749 C35.6012321,58.8532164 35.335808,60.096152 35.335808,60.9767953 L35.335808,64.8203626 C35.335808,65.4008538 35.7195714,65.8714737 36.1929286,65.8714737 C36.6662857,65.8714737 37.0500491,65.4008538 37.0500491,64.8203626 L37.0500491,60.9766667 C37.0500491,60.4625614 37.2349018,59.5904094 37.4398973,59.1320117 L47.3133594,39.5246082 C47.3195491,39.512386 47.3254241,39.4999064 47.3312991,39.4872982 C47.6830647,38.7198713 47.9489085,37.4770643 47.949433,36.596807 L47.9633862,17.3048655 C47.9639107,15.0378363 46.4600156,13.1936959 44.6116987,13.1936959 Z" id="Shape" fill="#64375A"></path>
                <path d="M13.5859286,26.2793216 C14.5604442,26.2793216 15.6132232,25.8323743 16.7277946,25.3590526 C17.9802187,24.827193 19.2753415,24.277193 20.5807455,24.277193 C21.2607768,24.277193 21.8595022,24.4555088 22.3600312,24.8072515 C22.7709665,25.0958246 23.294471,24.9213684 23.5298906,24.4176842 C23.7652054,23.914 23.6229464,23.2716257 23.212221,22.9830526 C22.4488906,22.4468187 21.5635491,22.1749708 20.5807455,22.1749708 C18.9870469,22.1749708 17.4887121,22.8111696 16.166942,23.3724912 C15.5563616,23.631731 14.9670781,23.8820936 14.4432589,24.0327485 L14.4432589,4.004 C15.1694509,3.84588304 15.9328862,3.52154386 16.7278996,3.18395322 C17.9802187,2.65222222 19.2753415,2.10222222 20.5807455,2.10222222 C22.7172522,2.10222222 23.4757567,3.90853801 23.6431942,4.40244444 L23.6431942,20.261614 C23.6431942,20.8421053 24.0269576,21.3127251 24.5003147,21.3127251 C24.9736719,21.3127251 25.3574353,20.8421053 25.3574353,20.261614 L25.3574353,4.4014152 C25.5229844,3.91021053 26.2785513,2.10222222 28.4198839,2.10222222 C29.725183,2.10222222 31.0203058,2.65222222 32.2728348,3.18408187 C33.0678482,3.52167251 33.8313884,3.84588304 34.5574754,4.00412865 L34.5574754,24.0327485 C34.0335513,23.8820936 33.4443728,23.631731 32.8336875,23.3724912 C31.5118125,22.8111696 30.0135826,22.1749708 28.4198839,22.1749708 C27.4372902,22.1749708 26.5518437,22.4468187 25.7886183,22.982924 C25.3778929,23.2714971 25.2356339,23.9138713 25.4707388,24.4175556 C25.7060536,24.9212398 26.2298728,25.0954386 26.6405982,24.8073801 C27.1412321,24.4557661 27.7399576,24.2773216 28.4198839,24.2773216 C29.725183,24.2773216 31.0203058,24.8273216 32.2728348,25.3591813 C33.3873013,25.8325029 34.4400804,26.2794503 35.4147009,26.2794503 C35.888058,26.2794503 36.2718214,25.8088304 36.2718214,25.2283392 L36.2718214,3.05323977 C36.2718214,2.47274854 35.888058,2.00212865 35.4147009,2.00212865 C34.7284799,2.00212865 33.8082031,1.61127485 32.8337924,1.19752047 C31.5117076,0.636327485 30.0134777,0 28.4196741,0 C26.5239375,0 25.2571406,1.0379883 24.5001049,2.14069006 C23.7431741,1.0379883 22.4763772,0 20.5806406,0 C18.986942,0 17.4886071,0.636327485 16.1668371,1.19752047 C15.1924263,1.61127485 14.2720446,2.00212865 13.5860335,2.00212865 C13.1126763,2.00212865 12.7289129,2.47274854 12.7289129,3.05323977 L12.7289129,25.2282105 C12.7287031,25.8087018 13.1124665,26.2793216 13.5859286,26.2793216 Z" id="Shape" fill="#64375A"></path>
                <path d="M28.4196741,28.4444561 C29.7249732,28.4444561 31.020096,28.9944561 32.272625,29.5263158 C33.3870915,29.9996374 34.4398705,30.4465848 35.4144911,30.4465848 C35.8878482,30.4465848 36.2716116,29.9759649 36.2716116,29.3954737 C36.2716116,28.8149825 35.8878482,28.3443626 35.4144911,28.3443626 C34.7282701,28.3443626 33.8079933,27.9535088 32.8335826,27.539883 C31.5117076,26.9785614 30.0134777,26.3423626 28.419779,26.3423626 C26.7382701,26.3423626 25.6228594,27.1384795 24.9313929,27.9244327 L24.0689219,27.9244327 C23.3774554,27.1384795 22.2620446,26.3423626 20.5805357,26.3423626 C18.9868371,26.3423626 17.4885022,26.9785614 16.1667321,27.539883 C15.1924263,27.9536374 14.2719397,28.3443626 13.5859286,28.3443626 C13.1125714,28.3443626 12.728808,28.8149825 12.728808,29.3954737 C12.728808,29.9759649 13.1125714,30.4465848 13.5859286,30.4465848 C14.5604442,30.4465848 15.6132232,29.9996374 16.7277946,29.5263158 C17.9802187,28.9944561 19.2753415,28.4444561 20.5807455,28.4444561 C21.6267054,28.4444561 22.4676696,28.8615556 23.0801384,29.6840468 C23.2425402,29.902117 23.4722946,30.0263977 23.7131696,30.0263977 L25.2874598,30.0263977 C25.5282299,30.0263977 25.7579844,29.902117 25.9204911,29.6840468 C26.53275,28.8615556 27.3738192,28.4444561 28.4196741,28.4444561 Z" id="Shape" fill="#64375A"></path>
            </g>
        </g>
    </g>
</svg>