<?xml version="1.0" encoding="UTF-8"?>
<svg width="98px" height="98px" viewBox="0 0 98 98" version="1.1" xmlns="http://www.w3.org/2000/svg" xmlns:xlink="http://www.w3.org/1999/xlink">
    <!-- Generator: Sketch 49.1 (51147) - http://www.bohemiancoding.com/sketch -->
    <title>iPhone 8</title>
    <desc>Created with Sketch.</desc>
    <defs>
        <linearGradient x1="50%" y1="0%" x2="50%" y2="100%" id="linearGradient-1">
            <stop stop-color="#FFFFFF" offset="0%"></stop>
            <stop stop-color="#5B86E5" offset="100%"></stop>
        </linearGradient>
    </defs>
    <g id="Page-1" stroke="none" stroke-width="1" fill="none" fill-rule="evenodd">
        <g id="home" transform="translate(-139.000000, -240.000000)" fill="url(#linearGradient-1)" stroke="#5B86E5">
            <g id="ico_病例管理" transform="translate(139.000000, 240.000000)">
                <g id="ico-病例管理">
                    <path d="M49,86 C28.5654643,86 12,69.4345357 12,49 C12,28.5654643 28.5654643,12 49,12 C69.4345357,12 86,28.5654643 86,49 C86,69.4345357 69.4345357,86 49,86 Z M48.4280981,23.3923639 C47.4715128,22.8400792 46.248332,23.1678295 45.6960472,24.1244147 L26.9704576,56.5580874 C26.5810985,57.2324772 26.3970551,58.005853 26.4409063,58.7833355 L26.7712112,64.6396473 C26.7789516,64.7768847 26.8149018,64.9110529 26.8768172,65.0337742 C27.1255878,65.526858 27.7269796,65.724913 28.2200634,65.4761425 L33.4569306,62.834039 C34.1521758,62.483274 34.7299172,61.9371998 35.1192763,61.2628101 L53.844866,28.8291374 C54.3971507,27.8725522 54.0694004,26.6493713 53.1128152,26.0970866 L48.4280981,23.3923639 Z M52.7388997,15.9258365 C51.7823144,15.3735517 50.5591336,15.701302 50.0068489,16.6578873 L48.3118761,19.5936663 C47.7595913,20.5502516 48.0873416,21.7734324 49.0439269,22.3257171 L53.728644,25.0304398 C54.6852292,25.5827246 55.90841,25.2549743 56.4606948,24.298389 L58.1556676,21.36261 C58.7079523,20.4060247 58.380202,19.1828439 57.4236168,18.6305591 L52.7388997,15.9258365 Z M23.25,67.5 C22.1454305,67.5 21.25,68.3954305 21.25,69.5 L21.25,70.125 C21.25,71.2295695 22.1454305,72.125 23.25,72.125 L74.75,72.125 C75.8545695,72.125 76.75,71.2295695 76.75,70.125 L76.75,69.5 C76.75,68.3954305 75.8545695,67.5 74.75,67.5 L23.25,67.5 Z M51,60.5625 C49.8954305,60.5625 49,61.4579305 49,62.5625 L49,63.1875 C49,64.2920695 49.8954305,65.1875 51,65.1875 L80.53125,65.1875 C81.6358195,65.1875 82.53125,64.2920695 82.53125,63.1875 L82.53125,62.5625 C82.53125,61.4579305 81.6358195,60.5625 80.53125,60.5625 L51,60.5625 Z" id="Combined-Shape"></path>
                </g>
            </g>
        </g>
    </g>
</svg>