<?xml version="1.0" encoding="UTF-8"?>
<svg width="98px" height="98px" viewBox="0 0 98 98" version="1.1" xmlns="http://www.w3.org/2000/svg" xmlns:xlink="http://www.w3.org/1999/xlink">
    <!-- Generator: Sketch 49.1 (51147) - http://www.bohemiancoding.com/sketch -->
    <title>iPhone 8</title>
    <desc>Created with Sketch.</desc>
    <defs>
        <linearGradient x1="50%" y1="0%" x2="50%" y2="97.9520412%" id="linearGradient-1">
            <stop stop-color="#FFFFFF" offset="0%"></stop>
            <stop stop-color="#5B86E5" offset="100%"></stop>
        </linearGradient>
    </defs>
    <g id="Page-1" stroke="none" stroke-width="1" fill="none" fill-rule="evenodd">
        <g id="home" transform="translate(-16.000000, -240.000000)" fill="url(#linearGradient-1)" stroke="#5B86E5">
            <g id="ico_预约挂号" transform="translate(16.000000, 240.000000)">
                <g transform="translate(12.000000, 12.000000)" id="Combined-Shape">
                    <path d="M37,74 C16.5654643,74 0,57.4345357 0,37 C0,16.5654643 16.5654643,0 37,0 C57.4345357,0 74,16.5654643 74,37 C74,57.4345357 57.4345357,74 37,74 Z M32.0034188,55.2063492 L43.1711844,55.2063492 C43.8217338,55.2063492 44.2554335,54.7726496 44.2554335,54.1221001 L44.2554335,44.2554335 L54.1221001,44.2554335 C54.7726496,44.2554335 55.2063492,43.8217338 55.2063492,43.1711844 L55.2063492,32.0034188 C55.2063492,31.3528694 54.7726496,30.9191697 54.1221001,30.9191697 L44.2554335,30.9191697 L44.2554335,21.0525031 C44.2554335,20.4019536 43.8217338,19.968254 43.1711844,19.968254 L32.0034188,19.968254 C31.3528694,19.968254 30.9191697,20.4019536 30.9191697,21.0525031 L30.9191697,30.9191697 L21.0525031,30.9191697 C20.4019536,30.9191697 19.968254,31.3528694 19.968254,32.0034188 L19.968254,43.1711844 C19.968254,43.8217338 20.4019536,44.2554335 21.0525031,44.2554335 L30.9191697,44.2554335 L30.9191697,54.1221001 C30.9191697,54.7726496 31.3528694,55.2063492 32.0034188,55.2063492 Z"></path>
                </g>
            </g>
        </g>
    </g>
</svg>