<?xml version="1.0" encoding="UTF-8"?>
<svg width="98px" height="98px" viewBox="0 0 98 98" version="1.1" xmlns="http://www.w3.org/2000/svg" xmlns:xlink="http://www.w3.org/1999/xlink">
    <!-- Generator: Sketch 49.1 (51147) - http://www.bohemiancoding.com/sketch -->
    <title>iPhone 8</title>
    <desc>Created with Sketch.</desc>
    <defs>
        <linearGradient x1="50%" y1="0%" x2="50%" y2="100%" id="linearGradient-1">
            <stop stop-color="#FFFFFF" offset="0%"></stop>
            <stop stop-color="#5B86E5" offset="100%"></stop>
        </linearGradient>
    </defs>
    <g id="Page-1" stroke="none" stroke-width="1" fill="none" fill-rule="evenodd">
        <g id="home" transform="translate(-261.000000, -240.000000)">
            <g id="ico_十倍关爱" transform="translate(261.000000, 240.000000)">
                <g>
                    <path d="M43.8797599,53.7910306 C44.05378,53.8571232 44.1473955,53.8903689 44.1473955,53.8903689 C44.1473955,53.8903689 62.9508197,47.2127162 62.9508197,34.9924033 C62.9508197,29.349874 58.2937113,24.7756148 52.5489843,24.7756148 C49.0971732,24.7756148 46.039564,26.4283831 44.147541,28.9708288 C42.2553725,26.4283831 39.1979087,24.7756148 35.7460977,24.7756148 C35.6965446,24.7756148 35.6470725,24.7759551 35.5976836,24.7766335 C35.5499139,24.7759552 35.5020625,24.7756148 35.4541313,24.7756148 C29.9474796,24.7756148 25.4690277,29.2248574 25.3468243,34.7600974 C25.3451439,34.837336 25.3442623,34.9147686 25.3442623,34.9924033 C25.3442604,35.0721404 25.3450591,35.1516416 25.3466479,35.2309065 C25.5820009,47.2994414 43.619898,53.8903689 43.619898,53.8903689 C43.619898,53.8903689 43.7108184,53.8570995 43.8797599,53.7910306 Z M49.5367513,74.4363942 C50.7885007,74.4547713 52.0413131,74.2440763 53.2315884,73.8060963 L61.8547267,69.8560864 L75.6867194,69.8473787 L75.6867194,57.9338342 L61.8551364,57.9338342 L59.4919452,57.0960526 C56.4993891,56.0351495 53.2204229,56.0484671 50.2577781,57.1897883 C50.2377007,57.1975739 50.2176233,57.2053596 50.1975459,57.2131453 C48.6595766,57.8122339 47.0235763,58.1196664 45.3731326,58.1196664 L41.1558555,58.1196664 C39.4822613,58.1196664 38.1255007,59.4765282 38.1255007,61.1502474 C38.1255007,62.8239665 39.4822613,64.1808284 41.1558555,64.1808284 L46.5800298,64.1808284 C47.14906,64.1808284 47.5013363,64.800713 47.2102141,65.289675 C46.8784249,65.8468642 46.2406604,66.1456914 45.6002325,66.0438628 L36.1981733,64.5496244 L30.7834921,62.9255261 C30.7955514,62.917978 30.807652,62.9104988 30.8197933,62.9030888 L29.5215225,62.5071655 C27.4689893,61.9060743 25.3401288,63.1650818 24.8351951,65.2708053 C24.7932431,65.4457598 24.7740791,65.6225439 24.7757106,65.7976645 C24.7666037,66.7636303 25.4070479,67.6870724 26.3551285,67.9787099 L31.3131081,69.4442911 L46.4127091,73.9830755 C47.4311946,74.3015986 48.4853646,74.452045 49.5367513,74.4363942 Z M49,86 C28.5654643,86 12,69.4345357 12,49 C12,28.5654643 28.5654643,12 49,12 C69.4345357,12 86,28.5654643 86,49 C86,69.4345357 69.4345357,86 49,86 Z" id="Combined-Shape" stroke="#5B86E5" fill="url(#linearGradient-1)"></path>
                    <g id="love-1" transform="translate(28.000000, 28.000000)"></g>
                </g>
            </g>
        </g>
    </g>
</svg>