<?xml version="1.0" encoding="UTF-8"?>
<svg width="98px" height="98px" viewBox="0 0 98 98" version="1.1" xmlns="http://www.w3.org/2000/svg" xmlns:xlink="http://www.w3.org/1999/xlink">
    <!-- Generator: Sketch 49.1 (51147) - http://www.bohemiancoding.com/sketch -->
    <title>iPhone 8</title>
    <desc>Created with Sketch.</desc>
    <defs>
        <linearGradient x1="50%" y1="0%" x2="50%" y2="100%" id="linearGradient-1">
            <stop stop-color="#FFFFFF" offset="0%"></stop>
            <stop stop-color="#5B86E5" offset="100%"></stop>
        </linearGradient>
    </defs>
    <g id="Page-1" stroke="none" stroke-width="1" fill="none" fill-rule="evenodd">
        <g id="home" transform="translate(-16.000000, -371.000000)" fill="url(#linearGradient-1)" stroke="#5B86E5">
            <g id="ico_病情咨询" transform="translate(16.000000, 371.000000)">
                <g id="Group-5">
                    <g transform="translate(12.000000, 12.000000)">
                        <g id="Group">
                            <g id="Combined-Shape">
                                <path d="M18.9625,51.2477799 C18.9650791,51.2477997 18.9676606,51.2478096 18.9702444,51.2478096 L32.7141306,51.2478096 C33.2612001,51.2478096 33.7046875,50.8043222 33.7046875,50.2572527 C33.7046875,49.7101833 33.2612001,49.2666959 32.7141306,49.2666959 L18.9702444,49.2666959 C18.9676606,49.2666959 18.9650791,49.2667058 18.9625,49.2667255 L18.9625,48.5729055 C18.9625,47.7769745 18.4905495,47.0568017 17.7607659,46.7391194 L16.996875,46.4065898 C16.8199634,46.3295784 16.6290848,46.2898339 16.4361379,46.2898339 C15.6602397,46.2898339 15.03125,46.9188236 15.03125,47.6947218 L15.03125,52.8193688 C15.03125,53.0123156 15.0709945,53.2031942 15.1480059,53.3801058 C15.4576925,54.0915215 16.2854594,54.4171873 16.996875,54.1075007 L17.7607659,53.7749711 C18.4905495,53.4572888 18.9625,52.737116 18.9625,51.941185 L18.9625,51.2477833 Z M37,74 C16.5654643,74 0,57.4345357 0,37 C0,16.5654643 16.5654643,0 37,0 C57.4345357,0 74,16.5654643 74,37 C74,57.4345357 57.4345357,74 37,74 Z M44.7121875,49.4648072 L39.6015625,49.4648072 C39.011875,49.4648072 38.61875,49.86103 38.61875,50.4553641 C38.61875,51.0496982 39.011875,51.445921 39.6015625,51.445921 L44.7121875,51.445921 C48.9382812,51.445921 52.378125,55.1109813 52.378125,59.5684871 C52.378125,63.8278816 48.9382812,67.2948306 44.7121875,67.2948306 C40.4860937,67.2948306 37.04625,63.8278816 37.04625,59.5684871 L37.04625,45.2054128 C38.8153125,44.80919 40.19125,43.4224104 40.4860937,41.6394081 C44.515625,41.5403524 48.3485937,38.4696262 49.4296875,34.4083431 C49.5279687,34.2102317 49.5279687,33.9130646 49.62625,33.6158976 L52.5746875,15.4887072 C52.9678125,13.2104264 52.378125,11.130257 51.0021875,9.54536604 C49.62625,7.96047508 47.660625,7.06897391 45.4001562,7.06897391 C44.515625,7.06897391 43.729375,7.76236371 43.729375,8.75292056 C43.729375,9.64442173 44.4173437,10.4368672 45.4001562,10.4368672 C46.6778125,10.4368672 47.7589062,10.9321456 48.5451562,11.8236468 C49.233125,12.715148 49.5279687,13.9038162 49.3314062,15.1915401 L46.48125,32.6253407 L25.7439062,32.6253407 L22.89375,15.1915401 C22.6971875,13.9038162 22.9920312,12.715148 23.68,11.9227025 C24.3679687,11.0312013 25.5473437,10.5359229 26.825,10.5359229 C27.7095312,10.5359229 28.4957812,9.8425331 28.4957812,8.85197625 C28.4957812,7.96047508 27.8078125,7.1680296 26.825,7.1680296 C24.5645312,7.1680296 22.5989062,8.05953076 21.2229687,9.64442173 C19.8470313,11.2293127 19.2573437,13.4085378 19.6504687,15.5877629 L22.5989062,33.7149533 C22.5989062,34.0121203 22.6971875,34.2102317 22.7954687,34.5073988 C23.8765625,38.5686819 27.61125,41.6394081 31.7390625,41.7384638 C32.0339062,43.5214661 33.4098437,44.9082457 35.080625,45.3044685 L35.080625,59.6675428 C35.080625,65.0165498 39.405,69.375 44.7121875,69.375 C50.019375,69.375 54.34375,65.0165498 54.34375,59.6675428 C54.34375,53.9223131 50.019375,49.4648072 44.7121875,49.4648072 Z M31.3459375,11.3283684 C32.2304687,11.3283684 33.0167187,10.6349786 33.0167187,9.64442173 L33.0167187,7.46519665 C33.0167187,6.57369548 32.32875,5.78125 31.3459375,5.78125 C30.4614062,5.78125 29.6751562,6.4746398 29.6751562,7.46519665 L29.6751562,9.64442173 C29.6751562,10.6349786 30.4614062,11.3283684 31.3459375,11.3283684 Z M40.8792187,11.3283684 C41.76375,11.3283684 42.55,10.6349786 42.55,9.64442173 L42.55,7.46519665 C42.55,6.57369548 41.8620312,5.78125 40.8792187,5.78125 C39.8964062,5.78125 39.2084375,6.4746398 39.2084375,7.46519665 L39.2084375,9.64442173 C39.3067187,10.6349786 39.9946875,11.3283684 40.8792187,11.3283684 Z"></path>
                            </g>
                        </g>
                    </g>
                </g>
            </g>
        </g>
    </g>
</svg>