<?xml version="1.0" encoding="UTF-8"?>
<svg width="98px" height="98px" viewBox="0 0 98 98" version="1.1" xmlns="http://www.w3.org/2000/svg" xmlns:xlink="http://www.w3.org/1999/xlink">
    <!-- Generator: Sketch 49.1 (51147) - http://www.bohemiancoding.com/sketch -->
    <title>iPhone 8</title>
    <desc>Created with Sketch.</desc>
    <defs>
        <linearGradient x1="50%" y1="0%" x2="50%" y2="100%" id="linearGradient-1">
            <stop stop-color="#FFFFFF" offset="0%"></stop>
            <stop stop-color="#5B86E5" offset="100%"></stop>
        </linearGradient>
        <linearGradient x1="74.7650096%" y1="25.6662933%" x2="22.6722371%" y2="77.306153%" id="linearGradient-2">
            <stop stop-color="#FFFFFF" offset="0%"></stop>
            <stop stop-color="#5B86E5" offset="100%"></stop>
        </linearGradient>
        <path d="M24.7261476,26.4605226 L24.7261476,17.0542726 C24.7261476,16.5019879 25.1738629,16.0542726 25.7261476,16.0542726 L32.9761476,16.0542726 C33.5284324,16.0542726 33.9761476,16.5019879 33.9761476,17.0542726 L33.9761476,26.4605226 L43.3823976,26.4605226 C43.9346824,26.4605226 44.3823976,26.9082379 44.3823976,27.4605226 L44.3823976,34.7105226 C44.3823976,35.2628074 43.9346824,35.7105226 43.3823976,35.7105226 L33.9761476,35.7105226 L33.9761476,45.1167726 C33.9761476,45.6690574 33.5284324,46.1167726 32.9761476,46.1167726 L25.7261476,46.1167726 C25.1738629,46.1167726 24.7261476,45.6690574 24.7261476,45.1167726 L24.7261476,35.7105226 L15.3198976,35.7105226 C14.7676129,35.7105226 14.3198976,35.2628074 14.3198976,34.7105226 L14.3198976,27.4605226 C14.3198976,26.9082379 14.7676129,26.4605226 15.3198976,26.4605226 L24.7261476,26.4605226 Z" id="path-3"></path>
    </defs>
    <g id="Page-1" stroke="none" stroke-width="1" fill="none" fill-rule="evenodd">
        <g id="home" transform="translate(-139.000000, -371.000000)">
            <g id="ico_寻医问药" transform="translate(0.000000, 363.000000)">
                <g id="Group-6" transform="translate(151.000000, 20.000000)">
                    <g id="Group-4">
                        <path d="M50.0633018,49.1054329 C54.1640897,44.5070106 56.65625,38.4429804 56.65625,31.796875 C56.65625,17.4288421 45.0086579,5.78125 30.640625,5.78125 C16.2725921,5.78125 4.625,17.4288421 4.625,31.796875 C4.625,46.1649079 16.2725921,57.8125 30.640625,57.8125 C36.6966455,57.8125 42.2693632,55.7432346 46.6903065,52.2731754 L54.7871697,60.3700385 C55.5682183,61.1510871 56.8345482,61.1510871 57.6155968,60.3700385 L58.0575385,59.9280968 C58.8385871,59.1470482 58.8385871,57.8807183 58.0575385,57.0996697 L50.0633018,49.1054329 Z M37,74 C16.5654643,74 0,57.4345357 0,37 C0,16.5654643 16.5654643,0 37,0 C57.4345357,0 74,16.5654643 74,37 C74,57.4345357 57.4345357,74 37,74 Z" id="Combined-Shape" stroke="#5B86E5" fill="url(#linearGradient-1)"></path>
                        <g id="Combined-Shape" transform="translate(29.351148, 30.507398) rotate(-45.000000) translate(-29.351148, -30.507398) ">
                            <use fill="url(#linearGradient-2)" fill-rule="evenodd" xlink:href="#path-3"></use>
                            <path stroke="#5B86E5" stroke-width="1" d="M25.2261476,17.0542726 L25.2261476,26.9605226 L15.3198976,26.9605226 C15.0437552,26.9605226 14.8198976,27.1843802 14.8198976,27.4605226 L14.8198976,34.7105226 C14.8198976,34.986665 15.0437552,35.2105226 15.3198976,35.2105226 L25.2261476,35.2105226 L25.2261476,45.1167726 C25.2261476,45.392915 25.4500052,45.6167726 25.7261476,45.6167726 L32.9761476,45.6167726 C33.25229,45.6167726 33.4761476,45.392915 33.4761476,45.1167726 L33.4761476,35.2105226 L43.3823976,35.2105226 C43.65854,35.2105226 43.8823976,34.986665 43.8823976,34.7105226 L43.8823976,27.4605226 C43.8823976,27.1843802 43.65854,26.9605226 43.3823976,26.9605226 L33.4761476,26.9605226 L33.4761476,17.0542726 C33.4761476,16.7781302 33.25229,16.5542726 32.9761476,16.5542726 L25.7261476,16.5542726 C25.4500052,16.5542726 25.2261476,16.7781302 25.2261476,17.0542726 Z"></path>
                        </g>
                    </g>
                </g>
            </g>
        </g>
    </g>
</svg>