<?xml version="1.0" encoding="UTF-8"?>
<svg width="359px" height="160px" viewBox="0 0 359 160" version="1.1" xmlns="http://www.w3.org/2000/svg" xmlns:xlink="http://www.w3.org/1999/xlink">
    <!-- Generator: Sketch 49.1 (51147) - http://www.bohemiancoding.com/sketch -->
    <title>card1</title>
    <desc>Created with Sketch.</desc>
    <defs>
        <rect id="path-1" x="0" y="0" width="359" height="160" rx="8"></rect>
    </defs>
    <g id="Page-1" stroke="none" stroke-width="1" fill="none" fill-rule="evenodd">
        <g id="实名认证成功点亮卡片" transform="translate(-8.000000, -80.000000)">
            <g id="card1" transform="translate(8.000000, 80.000000)">
                <mask id="mask-2" fill="white">
                    <use xlink:href="#path-1"></use>
                </mask>
                <use id="Mask" fill="#93FF8F" xlink:href="#path-1"></use>
                <g id="school" mask="url(#mask-2)" fill-rule="nonzero">
                    <g transform="translate(149.000000, 16.000000)">
                        <path d="M31.75,55.205498 L11.5453418,55.205498 C9.81347852,55.205498 8.65906836,56.364498 8.65906836,58.1026245 L8.65906836,107.355269 L31.75,107.355269 L31.75,55.205498 Z" id="Shape" fill="#ECEFF9"></path>
                        <path d="M95.25,55.205498 L95.25,107.355518 L118.340932,107.355518 L118.340932,58.1028735 C118.340932,56.364498 117.186273,55.2057469 115.454658,55.2057469 L95.25,55.2057469 L95.25,55.205498 Z" id="Shape" fill="#ECEFF9"></path>
                        <polygon id="Shape" fill="#ECEFF9" points="37.5227949 38.1120531 37.5227949 107.355518 89.4772051 107.355518 89.4772051 38.1120531 63.5 29.4204245"></polygon>
                        <polygon id="Shape" fill="#CEDAE6" points="63.5 29.4204245 37.5227949 38.1120531 37.5227949 40.7193673 63.5 32.0277388 89.4772051 40.7193673 89.4772051 38.1120531"></polygon>
                        <path d="M54.8409316,107.355518 L72.1590684,107.355518 L72.1590684,92.8693878 C72.1590684,87.9440735 68.4068633,84.1777592 63.5,84.1777592 C58.5931367,84.1777592 54.8409316,87.9440735 54.8409316,92.8693878 L54.8409316,107.355518 Z" id="Shape" fill="#70B7E5"></path>
                        <path d="M75.0453418,113.15002 L51.9544102,113.15002 C50.2225469,113.15002 49.0681367,111.99102 49.0681367,110.252894 L49.0681367,92.8693878 C49.0681367,84.7571347 55.4181367,78.3832571 63.5,78.3832571 C71.5818633,78.3832571 77.9318633,84.7571347 77.9318633,92.8693878 L77.9318633,110.252645 C77.9318633,111.99102 76.7772051,113.15002 75.0453418,113.15002 Z M54.8409316,107.355518 L72.1590684,107.355518 L72.1590684,92.8693878 C72.1590684,87.9440735 68.4068633,84.1777592 63.5,84.1777592 C58.5931367,84.1777592 54.8409316,87.9440735 54.8409316,92.8693878 L54.8409316,107.355518 Z" id="Shape" fill="#014463"></path>
                        <path d="M66.3862734,84.7571347 C65.5203418,84.4673224 64.6544102,84.1777592 63.5,84.1777592 C58.5931367,84.1777592 54.8409316,87.9440735 54.8409316,92.8693878 L54.8409316,107.355518 L60.6137266,107.355518 L60.6137266,92.8693878 C60.6137266,89.1030735 62.9227949,85.9161347 66.3862734,84.7571347 Z" id="Shape" fill="#4C9CD6"></path>
                        <path d="M76.2,5.95285306 L66.3862734,5.95285306 L66.3862734,11.7473551 L76.2,11.7473551 L75.3340684,10.0089796 C75.0453418,9.13979184 75.0453418,8.27060408 75.3340684,7.40141633 L76.2,5.95285306 Z" id="Shape" fill="#70B7E5"></path>
                        <path d="M49.0681367,55.205498 C47.3362734,55.205498 46.1818633,54.046498 46.1818633,52.3083714 L46.1818633,46.5138694 C46.1818633,44.7754939 47.3365215,43.6167429 49.0681367,43.6167429 C50.8,43.6167429 51.9544102,44.7757429 51.9544102,46.5138694 L51.9544102,52.3083714 C51.9546582,54.0467469 50.8,55.205498 49.0681367,55.205498 Z" id="Shape" fill="#014463"></path>
                        <path d="M63.5,55.205498 C61.7681367,55.205498 60.6137266,54.046498 60.6137266,52.3083714 L60.6137266,46.5138694 C60.6137266,44.7754939 61.7683848,43.6167429 63.5,43.6167429 C65.2318633,43.6167429 66.3862734,44.7757429 66.3862734,46.5138694 L66.3862734,52.3083714 C66.3862734,54.0467469 65.2318633,55.205498 63.5,55.205498 Z" id="Shape" fill="#014463"></path>
                        <path d="M77.9318633,55.205498 C76.2,55.205498 75.0455898,54.046498 75.0455898,52.3083714 L75.0455898,46.5138694 C75.0455898,44.7754939 76.200248,43.6167429 77.9318633,43.6167429 C79.6634785,43.6167429 80.8181367,44.7757429 80.8181367,46.5138694 L80.8181367,52.3083714 C80.8181367,54.0467469 79.6637266,55.205498 77.9318633,55.205498 Z" id="Shape" fill="#014463"></path>
                        <path d="M49.0681367,75.4861306 C47.3362734,75.4861306 46.1818633,74.3271306 46.1818633,72.5890041 L46.1818633,66.794502 C46.1818633,65.0561265 47.3365215,63.8973755 49.0681367,63.8973755 C50.8,63.8973755 51.9544102,65.0563755 51.9544102,66.794502 L51.9544102,72.5890041 C51.9546582,74.3271306 50.8,75.4861306 49.0681367,75.4861306 Z" id="Shape" fill="#014463"></path>
                        <path d="M63.5,75.4861306 C61.7681367,75.4861306 60.6137266,74.3271306 60.6137266,72.5890041 L60.6137266,66.794502 C60.6137266,65.0561265 61.7683848,63.8973755 63.5,63.8973755 C65.2318633,63.8973755 66.3862734,65.0563755 66.3862734,66.794502 L66.3862734,72.5890041 C66.3862734,74.3271306 65.2318633,75.4861306 63.5,75.4861306 Z" id="Shape" fill="#014463"></path>
                        <path d="M77.9318633,75.4861306 C76.2,75.4861306 75.0455898,74.3271306 75.0455898,72.5890041 L75.0455898,66.794502 C75.0455898,65.0561265 76.200248,63.8973755 77.9318633,63.8973755 C79.6634785,63.8973755 80.8181367,65.0563755 80.8181367,66.794502 L80.8181367,72.5890041 C80.8181367,74.3271306 79.6637266,75.4861306 77.9318633,75.4861306 Z" id="Shape" fill="#014463"></path>
                        <path d="M106.795342,75.4861306 C105.063479,75.4861306 103.909068,74.3271306 103.909068,72.5890041 L103.909068,66.794502 C103.909068,65.0561265 105.063727,63.8973755 106.795342,63.8973755 C108.526957,63.8973755 109.681615,65.0563755 109.681615,66.794502 L109.681615,72.5890041 C109.681863,74.3271306 108.527205,75.4861306 106.795342,75.4861306 Z" id="Shape" fill="#014463"></path>
                        <path d="M20.2046582,75.4861306 C18.4727949,75.4861306 17.3183848,74.3271306 17.3183848,72.5890041 L17.3183848,66.794502 C17.3183848,65.0561265 18.473043,63.8973755 20.2046582,63.8973755 C21.9365215,63.8973755 23.0909316,65.0563755 23.0909316,66.794502 L23.0909316,72.5890041 C23.0909316,74.3271306 21.9362734,75.4861306 20.2046582,75.4861306 Z" id="Shape" fill="#014463"></path>
                        <path d="M106.795342,98.6638898 C105.063479,98.6638898 103.909068,97.5048898 103.909068,95.7667633 L103.909068,89.9722612 C103.909068,88.2338857 105.063727,87.0751347 106.795342,87.0751347 C108.526957,87.0751347 109.681615,88.2341347 109.681615,89.9722612 L109.681615,95.7667633 C109.681863,97.5048898 108.527205,98.6638898 106.795342,98.6638898 Z" id="Shape" fill="#014463"></path>
                        <path d="M20.2046582,98.6638898 C18.4727949,98.6638898 17.3183848,97.5048898 17.3183848,95.7667633 L17.3183848,89.9722612 C17.3183848,88.2338857 18.473043,87.0751347 20.2046582,87.0751347 C21.9365215,87.0751347 23.0909316,88.2341347 23.0909316,89.9722612 L23.0909316,95.7667633 C23.0909316,97.5048898 21.9362734,98.6638898 20.2046582,98.6638898 Z" id="Shape" fill="#014463"></path>
                        <rect id="Rectangle-path" fill="#5F7B93" x="5.77279492" y="113.15002" width="37.5227949" height="2.89712653"></rect>
                        <rect id="Rectangle-path" fill="#5F7B93" x="83.7046582" y="113.15002" width="37.5227949" height="2.89712653"></rect>
                        <rect id="Rectangle-path" fill="#B0C4D8" x="49.0681367" y="113.15002" width="28.8637266" height="2.89712653"></rect>
                        <rect id="Rectangle-path" fill="#4A6B84" x="83.7046582" y="113.15002" width="2.88627344" height="2.89712653"></rect>
                        <rect id="Rectangle-path" fill="#4A6B84" x="98.1362734" y="113.15002" width="2.88627344" height="2.89712653"></rect>
                        <rect id="Rectangle-path" fill="#CEDAE6" x="95.25" y="55.205498" width="5.77279492" height="52.1500204"></rect>
                        <path d="M124.113727,107.355518 L124.113727,58.1028735 C124.113727,53.1775592 120.361521,49.4112449 115.454658,49.4112449 L95.25,49.4112449 L95.25,39.8504286 L97.2703418,40.4298041 C97.5590684,40.4298041 97.8475469,40.7196163 98.1362734,40.7196163 C99.2909316,40.7196163 100.445342,39.8504286 100.734068,38.6916776 C101.311273,37.2431143 100.445342,35.5047388 99.0022051,34.9253633 L66.3862734,24.2055469 L66.3862734,17.5418571 L80.8181367,17.5418571 C81.6840684,17.5418571 82.8384785,16.9624816 83.4159316,16.0932939 C83.9931367,15.2241061 83.9931367,14.0653551 83.4159316,13.1961673 L81.1068633,8.85022857 L83.4159316,4.21472653 C83.9931367,3.34553878 83.7046582,2.18678776 83.4159316,1.3176 C82.8387266,0.73822449 81.6840684,0.1586 80.8181367,0.1586 L63.5,0.1586 C61.7681367,0.1586 60.6137266,1.3176 60.6137266,3.05572653 L60.6137266,14.6444816 L60.6137266,24.205298 L27.9977949,35.2146776 C26.5546582,35.7940531 25.6887266,37.2426163 26.2659316,38.9809918 C26.8431367,40.4295551 28.2862734,41.2987429 30.0181367,40.7193673 L32.0384785,40.1399918 L32.0384785,49.4109959 L11.5453418,49.4109959 C6.63847852,49.4109959 2.88627344,53.1773102 2.88627344,58.1026245 L2.88627344,107.355269 C1.1546582,107.355518 0,108.514269 0,110.252645 L0,118.944273 C0,120.682649 1.1546582,121.8414 2.88627344,121.8414 L46.1816152,121.8414 L80.8178887,121.8414 L124.11323,121.8414 C125.845094,121.8414 126.999504,120.6824 126.999504,118.944273 L126.999504,110.252645 C127,108.514269 125.845342,107.355518 124.113727,107.355518 Z M28.8637266,116.047147 L5.77279492,116.047147 L5.77279492,113.15002 L28.8637266,113.15002 L28.8637266,116.047147 L28.8637266,116.047147 Z M31.75,107.355518 L8.65906836,107.355518 L8.65906836,58.1028735 C8.65906836,56.364498 9.81372656,55.2057469 11.5453418,55.2057469 L31.75,55.2057469 L31.75,107.355518 Z M75.3340684,10.0089796 L76.2,11.7473551 L66.3862734,11.7473551 L66.3862734,5.95285306 L76.2,5.95285306 L75.3340684,7.69122857 C75.0453418,8.27060408 75.0453418,9.42960408 75.3340684,10.0089796 Z M43.2953418,116.047147 L34.6362734,116.047147 L34.6362734,113.15002 L43.2953418,113.15002 L43.2953418,116.047147 Z M77.9318633,116.047147 L49.0681367,116.047147 L49.0681367,113.15002 L77.9318633,113.15002 L77.9318633,116.047147 Z M46.1818633,107.355518 L37.5227949,107.355518 L37.5227949,52.3083714 L37.5227949,38.1120531 L63.5,29.4204245 L89.4772051,38.1120531 L89.4772051,52.3083714 L89.4772051,107.355518 L80.8181367,107.355518 L46.1818633,107.355518 Z M92.3637266,116.047147 L83.7046582,116.047147 L83.7046582,113.15002 L92.3637266,113.15002 L92.3637266,116.047147 Z M95.25,55.205498 L115.454658,55.205498 C117.186521,55.205498 118.340932,56.364498 118.340932,58.1026245 L118.340932,107.355269 L95.25,107.355269 L95.25,55.205498 Z M121.227205,116.047147 L98.1362734,116.047147 L98.1362734,113.15002 L121.227205,113.15002 L121.227205,116.047147 Z" id="Shape" fill="#014463"></path>
                    </g>
                </g>
                <g id="syringe" mask="url(#mask-2)" fill="#7FE67B" fill-rule="nonzero">
                    <g transform="translate(297.221552, 103.000000)" id="Shape">
                        <path d="M26.3912195,25.4939263 L29.1769351,28.2734832 C30.9363876,30.0290458 33.7221033,30.0290458 35.3348927,28.2734832 L43.9853658,19.642135 L42.9591025,18.6181407 L41.9328393,17.5941463 L33.2823662,26.2254946 C32.69584,26.810724 31.8162398,26.810724 31.2297136,26.2254946 L28.443998,23.4459377 L26.3912195,25.4939263 Z"></path>
                        <path d="M38.5530789,33.5486995 C38.2605271,33.2554973 38.1141883,32.9621691 38.1141883,32.5224289 C38.1141883,32.0825626 38.2605271,31.7893604 38.5530789,31.4961583 L47.1843015,22.8456232 L46.1603071,21.8193526 L45.1363128,20.793082 L36.5049645,29.4436171 C35.6271833,30.3233496 35.1882926,31.3496202 35.1882926,32.5225549 C35.1882926,33.6954896 35.6271833,34.8684242 36.5049645,35.6014927 L39.2845214,38.3872283 L41.3326358,36.3345611 L38.5530789,33.5486995 Z"></path>
                        <path d="M62.5868434,14.7478068 L48.264871,0.429587193 C47.6919379,-0.143195731 46.832723,-0.143195731 46.2597899,0.429587193 C45.6868569,1.00237012 45.6868569,1.86135993 46.2597899,2.43414285 L49.697019,5.87047125 C49.983424,6.15680119 50.126688,6.72958412 50.126688,7.15914055 C50.126688,7.58869698 49.983424,8.16135685 49.553755,8.44780984 L42.9657018,15.1773632 L35.3750466,7.58869698 C34.8021135,7.01591405 33.9428986,7.01591405 33.3699655,7.58869698 C32.7970325,8.1614799 32.7970325,9.02046972 33.3699655,9.59325264 L35.2317826,11.4545818 L12.316799,34.3636839 C11.171056,35.5091267 10.741387,37.2273524 11.31432,38.8023517 L12.316799,41.6660202 C12.4600631,42.2388031 12.316799,42.811463 12.030394,43.0977929 L11.0279151,44.1000092 C10.168577,44.9591221 9.738908,45.9613384 9.738908,47.1067812 C9.738908,48.1089975 10.168577,49.1113369 10.884651,49.9704497 L0.429699788,60.4227845 C-0.143233263,60.9955674 -0.143233263,61.8545572 0.429699788,62.4273401 C0.716104774,62.8567735 1.00250976,63 1.43217878,63 C1.8618478,63 2.14825278,62.8567735 2.43465777,62.5704436 L12.889609,52.1182319 C13.748947,52.8341182 14.751426,53.2636747 15.7540281,53.2636747 C16.8997711,53.2636747 17.9023732,52.8341182 18.7615881,51.9750054 L19.7640671,50.9727891 C20.1937362,50.5432326 20.7665461,50.4000062 21.1962151,50.6864591 L24.0606342,51.6886754 C25.6360463,52.2614584 27.3547224,51.8319019 28.5004654,50.6864591 L51.415572,27.777357 L53.277389,29.6386862 C53.563794,29.9250161 53.993463,30.0682426 54.279868,30.0682426 C54.566273,30.0682426 54.995942,29.9250161 55.282347,29.6386862 C55.85528,29.0659033 55.85528,28.2069135 55.282347,27.6341305 L47.8349558,20.0454643 L54.423009,13.4591375 C55.282347,12.7432511 56.284826,12.7432511 57.144164,13.4591375 L60.4382521,16.7523624 C60.7246571,17.0386924 61.1543261,17.1819189 61.4407311,17.1819189 C61.7271361,17.1819189 62.1568051,17.0386924 62.4432101,16.7523624 C63.1596534,16.1795795 63.1596534,15.3204666 62.5868434,14.7478068 Z M26.6387714,48.6817804 C26.2091024,49.1113369 25.6362924,49.2545634 25.2066234,48.9681104 L22.3422043,47.9658941 C20.7667923,47.3931111 19.0481162,47.8226676 17.9023732,48.9681104 L16.8998942,49.9703267 C16.3269611,50.5431096 15.4677462,50.5431096 14.8948131,49.9703267 L14.0354751,49.1112138 L14.0354751,49.1112138 L14.0354751,49.1112138 L13.1761371,48.252101 C12.8897321,47.965771 12.746468,47.679318 12.746468,47.2498846 C12.746468,46.8204513 12.8897321,46.5339983 13.1761371,46.2476683 L14.1786161,45.245452 C15.3243591,44.1000092 15.7540281,42.3817835 15.181095,40.8067843 L14.1786161,37.9431158 C14.035352,37.3703328 14.1786161,36.797673 14.465021,36.511343 L23.0581553,27.9204605 L35.3750466,40.2341244 L26.6387714,48.6817804 Z M49.553878,25.7728014 L37.2369867,38.0863422 L24.9200954,25.7728014 L37.2369867,13.4591375 L41.9632228,18.1841352 L44.8276419,21.0478037 L49.553878,25.7728014 Z M45.8301209,18.0409087 L44.9707829,17.1817958 L52.9911071,9.16357316 L53.8504451,10.022686 L45.8301209,18.0409087 Z"></path>
                    </g>
                </g>
                <g id="pencil" mask="url(#mask-2)" fill="#7FE67B" fill-rule="nonzero">
                    <g transform="translate(27.271801, 55.574846) scale(-1, 1) rotate(-150.000000) translate(-27.271801, -55.574846) translate(-14.728199, -0.425154)">
                        <circle id="Oval" cx="17.5" cy="12.5" r="2.5"></circle>
                        <path d="M28.2857301,0 L7.71426993,0 C3.34279874,0 0,3.30903125 0,7.63634375 L0,104.363656 C0,108.690969 3.34279874,112 7.71426993,112 L28.2857301,112 C32.6572013,112 36,108.690969 36,104.363656 L36,7.63634375 C36,3.30903125 32.6572013,0 28.2857301,0 Z M28.2857301,106.909031 L7.71426993,106.909031 C6.17137175,106.909031 5.14292028,105.89075 5.14292028,104.363656 L5.14292028,7.63634375 C5.14292028,6.10903125 6.17159273,5.09096875 7.71426993,5.09096875 L28.2857301,5.09096875 C29.8286283,5.09096875 30.8570797,6.10925 30.8570797,7.63634375 L30.8570797,20.3636562 L25.7141594,20.3636562 C24.1712613,20.3636562 23.1428098,21.3819375 23.1428098,22.9090312 C23.1428098,24.4363437 24.1714822,25.4544062 25.7141594,25.4544062 L30.8570797,25.4544062 L30.8570797,30.545375 L20.5714601,30.545375 C19.028562,30.545375 18.0001105,31.5636562 18.0001105,33.09075 C18.0001105,34.6180625 19.0287829,35.636125 20.5714601,35.636125 L30.8570797,35.636125 L30.8570797,40.7270937 L25.7141594,40.7270937 C24.1712613,40.7270937 23.1428098,41.745375 23.1428098,43.2724687 C23.1428098,44.7997812 24.1714822,45.8178437 25.7141594,45.8178437 L30.8570797,45.8178437 L30.8570797,50.9088125 L20.5714601,50.9088125 C19.028562,50.9088125 18.0001105,51.9270937 18.0001105,53.4541875 C18.0001105,54.9815 19.0287829,55.9995625 20.5714601,55.9995625 L30.8570797,55.9995625 L30.8570797,61.0905312 L25.7141594,61.0905312 C24.1712613,61.0905312 23.1428098,62.1088125 23.1428098,63.6359062 C23.1428098,65.1632187 24.1714822,66.1812812 25.7141594,66.1812812 L30.8570797,66.1812812 L30.8570797,71.27225 L20.5714601,71.27225 C19.028562,71.27225 18.0001105,72.2905312 18.0001105,73.817625 C18.0001105,75.3447187 19.0287829,76.363 20.5714601,76.363 L30.8570797,76.363 L30.8570797,81.4539687 L25.7141594,81.4539687 C24.1712613,81.4539687 23.1428098,82.47225 23.1428098,83.9993437 C23.1428098,85.5266562 24.1714822,86.5447187 25.7141594,86.5447187 L30.8570797,86.5447187 L30.8570797,91.6356875 L20.5714601,91.6356875 C19.028562,91.6356875 18.0001105,92.6539687 18.0001105,94.1810625 C18.0001105,95.7081562 19.0287829,96.7264375 20.5714601,96.7264375 L30.8570797,96.7264375 L30.8570797,104.362781 C30.8570797,105.890969 29.8286283,106.909031 28.2857301,106.909031 Z" id="Shape"></path>
                        <path d="M66.5,81 C64.9999141,81 64,79.9893754 64,78.4737642 L64,35.5262358 C64,34.0104075 65.0001289,33 66.5,33 C68.0000859,33 69,34.0106246 69,35.5262358 L69,78.4735471 C69.0002148,79.9893754 68.0000859,81 66.5,81 Z" id="Shape"></path>
                        <path d="M81.4286346,86.5167706 L81.4286346,27.1400708 C81.4286346,26.6304587 81.4286346,25.8659312 81.1714096,25.1014037 C80.9141847,22.5531245 79.8857269,20.0046264 78.6000442,17.7112627 L68.0571365,1.14679131 C67.0284578,-0.382263771 64.7143173,-0.382263771 63.6856385,1.14679131 L53.3999558,17.7110437 C52.1142731,20.0046264 51.0855943,22.5529055 50.8285904,25.1011847 C50.8285904,25.8657122 50.5713654,26.6302397 50.5713654,27.1398518 L50.5713654,86.5165516 C49.0284578,86.5165516 48,87.5359946 48,89.0648307 L48,96.7098871 C48,98.2389422 49.0286788,99.2581663 50.5713654,99.2581663 L50.5713654,104.354944 C50.5713654,108.687193 53.9141847,112 58.2856827,112 L73.7143173,112 C78.0858153,112 81.4286346,108.687193 81.4286346,104.354944 L81.4286346,99.2581663 C82.9715422,99.2581663 84,98.2387232 84,96.7098871 L84,89.0648307 C84,87.5362136 82.9713212,86.5167706 81.4286346,86.5167706 Z M53.1427309,91.6135479 L78.8572691,91.6135479 L78.8572691,94.161827 L53.1427309,94.161827 L53.1427309,91.6135479 Z M57.7712328,20.5144574 L62.6569598,12.6144855 L69.3428193,12.6144855 L74.2285462,20.5144574 C74.7427751,21.2789849 75,22.0435125 75.5142289,22.80804 L56.4855501,22.80804 C56.7427751,22.0432935 57.257004,21.2787659 57.7712328,20.5144574 Z M55.7140963,27.9045983 L76.2856827,27.9045983 L76.2856827,86.5167706 L55.7140963,86.5167706 L55.7140963,27.9045983 Z M76.2856827,104.355382 C76.2856827,105.884437 75.257004,106.903661 73.7143173,106.903661 L58.2856827,106.903661 C56.7427751,106.903661 55.7143173,105.884218 55.7143173,104.355382 L55.7143173,99.2586043 L76.2859037,99.2586043 L76.2859037,104.355382 L76.2856827,104.355382 Z" id="Shape"></path>
                    </g>
                </g>
                <rect id="Rectangle-37" fill="#FFFFFF" opacity="0.6" mask="url(#mask-2)" x="0" y="120" width="359" height="40"></rect>
                <text id="主治医师" mask="url(#mask-2)" font-family="PingFangSC-Regular, PingFang SC" font-size="18" font-weight="normal" line-spacing="18" letter-spacing="0.200000003" fill="#333333">
                    <tspan x="8" y="150">主治医师</tspan>
                </text>
            </g>
        </g>
    </g>
</svg>